<?xml version="1.0" encoding="UTF-8"?>
<svg id="Layer_1" xmlns="http://www.w3.org/2000/svg" version="1.1" viewBox="0 0 1920 1920">
  <defs>
    <style>
      .mask-lake {
        fill: #ffffff;
        fill-rule: evenodd;
      }
    </style>
  </defs>
  <path class="mask-lake" d="M909,809.6c-36.9.7-34.2-9-72.7-9.4l11.7,11.7c-42.8,1.2-18.6,43.2-23.4,63.3-6.2,7.8-12.5,15.6-18.8,23.4,19.6,118.5,78.5,214.2,201.6,246.1,32.1,15.6,43.3,71.8,72.7,89.1,17.6,10.3,78.9,49,86.7,63.3,39.1,111.5,63.8,71.6,100.8,145.3h18.8c.8-4.7,1.6-9.4,2.3-14.1,10.8,2.1,13.8,4.5,25.8,7,1.1-11.6,1.1-10.7,7-16.4,29.3,22.3,49,5.6,79.7,21.1,1.6-3.1,3.1-6.2,4.7-9.4,24.3,18.9,74.7,39.3,100.8,21.1,13.7,11.6,18.9,26,32.8,35.2,19,12.5,35.1,11.7,49.2,28.1h-7c3.1,5.5,6.2,10.9,9.4,16.4,6.2-.8,12.5-1.6,18.8-2.3,9.4,75.5,10.5,124.2-7,173.5-8.5,24,24.8,29.2-7,37.5-3.4-15.7-8.1-37.9-14.1-51.6,3.1-3.9,6.2-7.8,9.4-11.7-34.1-32.7-73.7-59.2-128.9-58.6,1-48-4.3-51.8-11.7-91.4-25.7-6.1-27-7.9-42.2-21.1-25.8,4-145.9,9.7-152.4,2.3-4.2-12.5,3.1-16.6,0-25.8-10.9-2.9-99.5-68.5-105.5-77.3-10.8-16.1-12.2-32.4-23.4-46.9-10-12.9-38.4-17.7-46.9-30.5-29.8-44.8-46-54.1-86.7-91.4-3.1-7-6.2-14.1-9.4-21.1-59.3-33.3-68.5-3.2-143-63.3-9.2-55.1-97-36.5-126.6-75,6.9-7.9,5.1-2.3,7-11.7-28.7-33.6-30.2-67.6-51.6-103.1-18.8-31.1-44.2-62.3-60.9-96.1-7.9-15.9-8-84.7,9.4-91.4-6.6-14.3-6.1-26.9-11.7-39.8,4.7-5.5,9.4-10.9,14.1-16.4-6.9-17.1-4.1-71.5-16.4-77.3-6.8-13.8-21.2-10.3-32.8-18.8-18.9-13.7-47.2-77.8-46.9-98.5-4.8,1.4-6.9,5.4-9.4,9.4-2.3-3.1-7.5-5.2-7-9.4,15.2-8.8,14.3-28,28.1-37.5,11.8,1.7,12.8-1.3,18.8-4.7.8,3.9,1.6,7.8,2.3,11.7,9.9.8,6.5-9.8,7-16.4-20.5.6-25,3.2-37.5-4.7-4.4-58.4-135.1-34-147.7-75,35.5,13,107.1,37.7,173.5,23.4,24.6-5.1,33.6-18.3,63.3-18.8-4.7-7.8-9.4-15.6-14.1-23.4-7.8,2.3-15.6,4.7-23.4,7-6.1-8.8-13.1-9.8-23.4-14.1.8-2.3,1.6-4.7,2.3-7,8.3-7.1,10.6-18.8,14.1-30.5,69.5-16,54.2-53.6,89.1-72.7,1.8,15.9,9.8,7.7,11.7,16.4-10.6.1-13.5.5-18.8,4.7l4.7,4.7c28.5-10.4,51.5-10.4,68,9.4-1.5,12.8-2.3,14.1-11.7,18.8l4.7,14.1c69.3,4.1,12.7,70.8,168.8,98.4-3.6,12.4-8.6,12.7-2.3,23.4,10.6,12.7,24,27.6,37.5,37.5-7.2,9.7-13.5,13.4-16.4,28.1,20.1,10.8,28.2,36,46.9,46.9,85.6,49.5,158.1,97.5,246.1,131.3,9.2-13.9,53.2-12,37.5,11.7-71.8,87.2-142-23.6-260.2,32.8-13.3.8-26.6,1.6-39.8,2.3,9.3,9.3,22.5,15.2,25.8,30.5-18.9-2.7-37.5-8.1-56.3-11.7-6,22.3,41,22.1,46.9,39.8-7.7,3.2-6.8,3.6-11.7,4.7,1.6-2.3,3.1-4.7,4.7-7h-11.7v14.1c9.5-3,4.9-1.3,18.8,0v9.4c-16.2,2-27.2,4.7-44.5,2.3v-14.1h0Z"/>
</svg>