<?xml version="1.0" encoding="UTF-8"?>
<svg id="Layer_1" xmlns="http://www.w3.org/2000/svg" version="1.1" viewBox="0 0 1920 1920">
  <!-- Generator: Adobe Illustrator 29.3.1, SVG Export Plug-In . SVG Version: 2.1.0 Build 151)  -->
  <defs>
    <style>
      .st0 {
        fill: #4a7f7d;
      }

      .st1 {
        fill: #67aaa7;
      }

      .st2 {
        stroke: #98b192;
        stroke-width: 11px;
      }

      .st2, .st3 {
        fill: none;
      }

      .st2, .st3, .st4 {
        stroke-miterlimit: 10;
      }

      .st2, .st4 {
        fill-rule: evenodd;
      }

      .st5 {
        fill: #afd0af;
      }

      .st6 {
        fill: #247c49;
      }

      .st3 {
        stroke: #67aaa7;
        stroke-width: 6px;
      }

      .st4 {
        fill: #173b84;
        stroke: #003959;
        stroke-width: 15px;
      }

      .st7 {
        fill: #9dbcac;
      }

      .st8 {
        fill: #7c500a;
      }

      .st9 {
        fill: #b8d8c6;
      }
    </style>
  </defs>
  <rect class="st5" width="1920" height="1920"/>
  <path class="st4" d="M909,809.6c-36.9.7-34.2-9-72.7-9.4l11.7,11.7c-42.8,1.2-18.6,43.2-23.4,63.3-6.2,7.8-12.5,15.6-18.8,23.4,19.6,118.5,78.5,214.2,201.6,246.1,32.1,15.6,43.3,71.8,72.7,89.1,17.6,10.3,78.9,49,86.7,63.3,39.1,111.5,63.8,71.6,100.8,145.3h18.8c.8-4.7,1.6-9.4,2.3-14.1,10.8,2.1,13.8,4.5,25.8,7,1.1-11.6,1.1-10.7,7-16.4,29.3,22.3,49,5.6,79.7,21.1,1.6-3.1,3.1-6.2,4.7-9.4,24.3,18.9,74.7,39.3,100.8,21.1,13.7,11.6,18.9,26,32.8,35.2,19,12.5,35.1,11.7,49.2,28.1h-7c3.1,5.5,6.2,10.9,9.4,16.4,6.2-.8,12.5-1.6,18.8-2.3,9.4,75.5,10.5,124.2-7,173.5-8.5,24,24.8,29.2-7,37.5-3.4-15.7-8.1-37.9-14.1-51.6,3.1-3.9,6.2-7.8,9.4-11.7-34.1-32.7-73.7-59.2-128.9-58.6,1-48-4.3-51.8-11.7-91.4-25.7-6.1-27-7.9-42.2-21.1-25.8,4-145.9,9.7-152.4,2.3-4.2-12.5,3.1-16.6,0-25.8-10.9-2.9-99.5-68.5-105.5-77.3-10.8-16.1-12.2-32.4-23.4-46.9-10-12.9-38.4-17.7-46.9-30.5-29.8-44.8-46-54.1-86.7-91.4-3.1-7-6.2-14.1-9.4-21.1-59.3-33.3-68.5-3.2-143-63.3-9.2-55.1-97-36.5-126.6-75,6.9-7.9,5.1-2.3,7-11.7-28.7-33.6-30.2-67.6-51.6-103.1-18.8-31.1-44.2-62.3-60.9-96.1-7.9-15.9-8-84.7,9.4-91.4-6.6-14.3-6.1-26.9-11.7-39.8,4.7-5.5,9.4-10.9,14.1-16.4-6.9-17.1-4.1-71.5-16.4-77.3-6.8-13.8-21.2-10.3-32.8-18.8-18.9-13.7-47.2-77.8-46.9-98.5-4.8,1.4-6.9,5.4-9.4,9.4-2.3-3.1-7.5-5.2-7-9.4,15.2-8.8,14.3-28,28.1-37.5,11.8,1.7,12.8-1.3,18.8-4.7.8,3.9,1.6,7.8,2.3,11.7,9.9.8,6.5-9.8,7-16.4-20.5.6-25,3.2-37.5-4.7-4.4-58.4-135.1-34-147.7-75,35.5,13,107.1,37.7,173.5,23.4,24.6-5.1,33.6-18.3,63.3-18.8-4.7-7.8-9.4-15.6-14.1-23.4-7.8,2.3-15.6,4.7-23.4,7-6.1-8.8-13.1-9.8-23.4-14.1.8-2.3,1.6-4.7,2.3-7,8.3-7.1,10.6-18.8,14.1-30.5,69.5-16,54.2-53.6,89.1-72.7,1.8,15.9,9.8,7.7,11.7,16.4-10.6.1-13.5.5-18.8,4.7l4.7,4.7c28.5-10.4,51.5-10.4,68,9.4-1.5,12.8-2.3,14.1-11.7,18.8l4.7,14.1c69.3,4.1,12.7,70.8,168.8,98.4-3.6,12.4-8.6,12.7-2.3,23.4,10.6,12.7,24,27.6,37.5,37.5-7.2,9.7-13.5,13.4-16.4,28.1,20.1,10.8,28.2,36,46.9,46.9,85.6,49.5,158.1,97.5,246.1,131.3,9.2-13.9,53.2-12,37.5,11.7-71.8,87.2-142-23.6-260.2,32.8-13.3.8-26.6,1.6-39.8,2.3,9.3,9.3,22.5,15.2,25.8,30.5-18.9-2.7-37.5-8.1-56.3-11.7-6,22.3,41,22.1,46.9,39.8-7.7,3.2-6.8,3.6-11.7,4.7,1.6-2.3,3.1-4.7,4.7-7h-11.7v14.1c9.5-3,4.9-1.3,18.8,0v9.4c-16.2,2-27.2,4.7-44.5,2.3v-14.1h0Z"/>
  <path class="st2" d="M175.3,239.2s59.5,15.3,124.7,37.3,62.2,72.5,57.4,87.9,57.5,32.9,116.8,34.5,43.9-32.4,57.1-50,41.7-59.3,69.1-93.9,62.1-10.1,88.7-6.7,41,13.3,60.9,35.4,43.2,72,83.4,72,69.4,48.7,89.4,89.7,35.4,67.6,48.7,95.4,180.5,103.9,200.8,116.1,37.3-1.1,58.4,0,26.6,18.9,33,43.4-42.4,56.9-86.6,59.7-111.1-15-144.8-6.7-33.3,48.1-34.4,73.1-35.4,19.1-78.1,21.5-56.3-2.4-76.1,12.9-6.1,54.8,0,119.8,111.1,99.4,154.2,116.2,74.2,76.1,90.8,105.1,68.6,27.4,100.6,64.3,44.2,81.8,69.1,116.8,89.3,10.7,143.1,16.7,115.2,35,139.6,51.8,77.6,62.4,92.3,91.3,11.2,71.6,0,131.7-1,64.7,0,96.7-40.6,18.3-48.1,4.6-21.4-77.6-33.6-99.2-79.2-30.2-117.2-39.4-73.1-48.7-109.6-63.9-44.2-15.2-61.2,13.4,27.6,91.7,37.5,114.6,48,65.3,0,79.1-73.8-21.3-92.1-40.1-28.9,23.3-56.3,32.5-39.6,26.4-20.2,74.6-16.4,36.5-16.4,36.5c0,0-35.8-25.8-52.6-33.8s-54.6-5.8-75.2-43.9-84.9-57-125.1-51.9-133,24.8-157.9,36.5-61.4,23.4-93.5,19.7-50,0-80.2-.7-117-42.3-152.5-49-49.4,37.3-83,40.9-17.5,62.9-56.3,71.6-46.3,11.7-68.5,20.5-47.8,13.9-52.2,30"/>
  <g>
    <rect class="st8" x="296.7" y="1066.9" width="10.6" height="13.4"/>
    <polygon class="st6" points="344.8 1032.1 324.5 990.6 341.2 990.6 301 920.9 260.7 990.6 277.4 990.6 257.1 1032.1 274.1 1032.1 257.1 1066.9 344.8 1066.9 327.8 1032.1 344.8 1032.1"/>
  </g>
  <g>
    <rect class="st8" x="447.3" y="862.3" width="10.6" height="13.4"/>
    <polygon class="st6" points="495.4 827.5 475.1 785.9 491.7 785.9 451.5 716.2 411.3 785.9 427.9 785.9 407.6 827.5 424.6 827.5 407.6 862.3 495.4 862.3 478.4 827.5 495.4 827.5"/>
  </g>
  <g>
    <rect class="st8" x="403.4" y="638.6" width="10.6" height="13.4"/>
    <polygon class="st6" points="451.5 603.8 431.2 562.2 447.9 562.2 407.6 492.5 367.4 562.2 384 562.2 363.7 603.8 380.8 603.8 363.7 638.6 451.5 638.6 434.5 603.8 451.5 603.8"/>
  </g>
  <g>
    <rect class="st8" x="273.3" y="1259.3" width="10.6" height="13.4"/>
    <polygon class="st6" points="321.4 1224.5 301.1 1182.9 317.7 1182.9 277.5 1113.3 237.3 1182.9 253.9 1182.9 233.6 1224.5 250.6 1224.5 233.6 1259.3 321.4 1259.3 304.4 1224.5 321.4 1224.5"/>
  </g>
  <g>
    <rect class="st8" x="127.6" y="1106.1" width="10.6" height="13.4"/>
    <polygon class="st6" points="175.7 1071.2 155.4 1029.7 172.1 1029.7 131.8 960 91.6 1029.7 108.2 1029.7 88 1071.2 105 1071.2 88 1106.1 175.7 1106.1 158.7 1071.2 175.7 1071.2"/>
  </g>
  <g>
    <rect class="st8" x="578.9" y="1098.4" width="10.6" height="13.4"/>
    <polygon class="st6" points="627 1063.6 606.7 1022 623.4 1022 583.2 952.3 542.9 1022 559.6 1022 539.3 1063.6 556.3 1063.6 539.3 1098.4 627 1098.4 610 1063.6 627 1063.6"/>
  </g>
  <g>
    <rect class="st8" x="375.1" y="1520.1" width="10.6" height="13.4"/>
    <polygon class="st6" points="423.2 1485.3 402.9 1443.7 419.5 1443.7 379.3 1374 339.1 1443.7 355.7 1443.7 335.4 1485.3 352.4 1485.3 335.4 1520.1 423.2 1520.1 406.2 1485.3 423.2 1485.3"/>
  </g>
  <g>
    <rect class="st8" x="758.1" y="1307.6" width="10.6" height="13.4"/>
    <polygon class="st6" points="806.2 1272.8 785.9 1231.2 802.5 1231.2 762.3 1161.5 722 1231.2 738.7 1231.2 718.4 1272.8 735.4 1272.8 718.4 1307.6 806.2 1307.6 789.1 1272.8 806.2 1272.8"/>
  </g>
  <g>
    <rect class="st8" x="491.2" y="1719.2" width="10.6" height="13.4"/>
    <polygon class="st6" points="539.3 1684.4 519 1642.8 535.6 1642.8 495.4 1573.1 455.2 1642.8 471.8 1642.8 451.5 1684.4 468.5 1684.4 451.5 1719.2 539.3 1719.2 522.3 1684.4 539.3 1684.4"/>
  </g>
  <g>
    <rect class="st8" x="949.1" y="1380.6" width="10.6" height="13.4"/>
    <polygon class="st6" points="997.2 1345.8 976.9 1304.2 993.5 1304.2 953.3 1234.5 913.1 1304.2 929.7 1304.2 909.4 1345.8 926.4 1345.8 909.4 1380.6 997.2 1380.6 980.2 1345.8 997.2 1345.8"/>
  </g>
  <g>
    <rect class="st8" x="535" y="1579.8" width="10.6" height="13.4"/>
    <polygon class="st6" points="583.2 1545 562.9 1503.4 579.5 1503.4 539.3 1433.7 499 1503.4 515.7 1503.4 495.4 1545 512.4 1545 495.4 1579.8 583.2 1579.8 566.1 1545 583.2 1545"/>
  </g>
  <g>
    <rect class="st8" x="343.8" y="1754.1" width="10.6" height="13.4"/>
    <polygon class="st6" points="391.9 1719.3 371.6 1677.7 388.3 1677.7 348 1608 307.8 1677.7 324.5 1677.7 304.2 1719.3 321.2 1719.3 304.2 1754.1 391.9 1754.1 374.9 1719.3 391.9 1719.3"/>
  </g>
  <g>
    <rect class="st8" x="71.2" y="1607.9" width="10.6" height="13.4"/>
    <polygon class="st6" points="119.3 1573.1 99 1531.5 115.7 1531.5 75.4 1461.9 35.2 1531.5 51.9 1531.5 31.6 1573.1 48.6 1573.1 31.6 1607.9 119.3 1607.9 102.3 1573.1 119.3 1573.1"/>
  </g>
  <g>
    <rect class="st8" x="211.2" y="1467.1" width="10.6" height="13.4"/>
    <polygon class="st6" points="259.3 1432.2 239 1390.7 255.6 1390.7 215.4 1321 175.1 1390.7 191.8 1390.7 171.5 1432.2 188.5 1432.2 171.5 1467.1 259.3 1467.1 242.2 1432.2 259.3 1432.2"/>
  </g>
  <g>
    <rect class="st8" x="299.9" y="276.4" width="10.6" height="13.4"/>
    <polygon class="st6" points="348 241.6 327.7 200.1 344.4 200.1 304.2 130.4 263.9 200.1 280.6 200.1 260.3 241.6 277.3 241.6 260.3 276.4 348 276.4 331 241.6 348 241.6"/>
  </g>
  <g>
    <rect class="st8" x="256.1" y="510.4" width="10.6" height="13.4"/>
    <polygon class="st6" points="304.2 475.6 283.9 434 300.5 434 260.3 364.4 220 434 236.7 434 216.4 475.6 233.4 475.6 216.4 510.4 304.2 510.4 287.2 475.6 304.2 475.6"/>
  </g>
  <g>
    <rect class="st8" x="130.8" y="315.6" width="10.6" height="13.4"/>
    <polygon class="st6" points="178.9 280.8 158.6 239.2 175.3 239.2 135 169.5 94.8 239.2 111.4 239.2 91.2 280.8 108.2 280.8 91.2 315.6 178.9 315.6 161.9 280.8 178.9 280.8"/>
  </g>
  <g>
    <rect class="st8" x="218.6" y="796" width="10.6" height="13.4"/>
    <polygon class="st6" points="266.7 761.2 246.4 719.6 263 719.6 222.8 649.9 182.6 719.6 199.2 719.6 178.9 761.2 195.9 761.2 178.9 796 266.7 796 249.7 761.2 266.7 761.2"/>
  </g>
  <g>
    <rect class="st8" x="1168.1" y="1619.8" width="10.6" height="13.4"/>
    <polygon class="st6" points="1216.2 1585 1195.9 1543.4 1212.5 1543.4 1172.3 1473.8 1132.1 1543.4 1148.7 1543.4 1128.4 1585 1145.4 1585 1128.4 1619.8 1216.2 1619.8 1199.2 1585 1216.2 1585"/>
  </g>
  <g>
    <rect class="st8" x="115.1" y="631.9" width="10.6" height="13.4"/>
    <polygon class="st6" points="163.2 597.1 142.9 555.5 159.6 555.5 119.3 485.8 79.1 555.5 95.7 555.5 75.4 597.1 92.5 597.1 75.4 631.9 163.2 631.9 146.2 597.1 163.2 597.1"/>
  </g>
  <g>
    <rect class="st8" x="1441.1" y="1813.7" width="10.6" height="13.4"/>
    <polygon class="st6" points="1489.2 1778.9 1468.9 1737.3 1485.6 1737.3 1445.3 1667.7 1405.1 1737.3 1421.8 1737.3 1401.5 1778.9 1418.5 1778.9 1401.5 1813.7 1489.2 1813.7 1472.2 1778.9 1489.2 1778.9"/>
  </g>
  <g>
    <rect class="st8" x="171.5" y="1820.5" width="10.6" height="13.4"/>
    <polygon class="st6" points="219.6 1785.6 199.3 1744.1 215.9 1744.1 175.7 1674.4 135.5 1744.1 152.1 1744.1 131.8 1785.6 148.8 1785.6 131.8 1820.5 219.6 1820.5 202.6 1785.6 219.6 1785.6"/>
  </g>
  <g>
    <rect class="st8" x="1397.2" y="538.2" width="10.6" height="13.4"/>
    <polygon class="st6" points="1445.3 503.4 1425 461.8 1441.7 461.8 1401.5 392.1 1361.2 461.8 1377.9 461.8 1357.6 503.4 1374.6 503.4 1357.6 538.2 1445.3 538.2 1428.3 503.4 1445.3 503.4"/>
  </g>
  <g>
    <rect class="st8" x="1124.2" y="544.9" width="10.6" height="13.4"/>
    <polygon class="st6" points="1172.3 510.1 1152 468.5 1168.6 468.5 1128.4 398.9 1088.2 468.5 1104.8 468.5 1084.5 510.1 1101.5 510.1 1084.5 544.9 1172.3 544.9 1155.3 510.1 1172.3 510.1"/>
  </g>
  <g>
    <rect class="st8" x="1541.4" y="482.3" width="10.6" height="13.4"/>
    <polygon class="st6" points="1589.5 447.5 1569.2 405.9 1585.8 405.9 1545.6 336.2 1505.4 405.9 1522 405.9 1501.7 447.5 1518.7 447.5 1501.7 482.3 1589.5 482.3 1572.5 447.5 1589.5 447.5"/>
  </g>
  <g>
    <rect class="st8" x="1727.7" y="327.4" width="10.6" height="13.4"/>
    <polygon class="st6" points="1775.9 292.6 1755.6 251 1772.2 251 1732 181.3 1691.7 251 1708.4 251 1688.1 292.6 1705.1 292.6 1688.1 327.4 1775.9 327.4 1758.8 292.6 1775.9 292.6"/>
  </g>
  <g>
    <rect class="st8" x="1305.3" y="862.3" width="10.6" height="13.4"/>
    <polygon class="st6" points="1353.4 827.5 1333.1 785.9 1349.7 785.9 1309.5 716.2 1269.3 785.9 1285.9 785.9 1265.6 827.5 1282.6 827.5 1265.6 862.3 1353.4 862.3 1336.4 827.5 1353.4 827.5"/>
  </g>
  <g>
    <rect class="st8" x="1292.8" y="395.3" width="10.6" height="13.4"/>
    <polygon class="st6" points="1340.9 360.5 1320.6 318.9 1337.2 318.9 1297 249.2 1256.7 318.9 1273.4 318.9 1253.1 360.5 1270.1 360.5 1253.1 395.3 1340.9 395.3 1323.8 360.5 1340.9 360.5"/>
  </g>
  <g>
    <rect class="st8" x="1638.9" y="718.3" width="10.6" height="13.4"/>
    <polygon class="st6" points="1687 683.5 1666.7 641.9 1683.3 641.9 1643.1 572.3 1602.9 641.9 1619.5 641.9 1599.2 683.5 1616.2 683.5 1599.2 718.3 1687 718.3 1670 683.5 1687 683.5"/>
  </g>
  <g>
    <rect class="st8" x="1566.4" y="1008.4" width="10.6" height="13.4"/>
    <polygon class="st6" points="1614.5 973.5 1594.2 932 1610.8 932 1570.6 862.3 1530.4 932 1547 932 1526.7 973.5 1543.7 973.5 1526.7 1008.4 1614.5 1008.4 1597.5 973.5 1614.5 973.5"/>
  </g>
  <g>
    <rect class="st8" x="1522.5" y="1252.6" width="10.6" height="13.4"/>
    <polygon class="st6" points="1570.6 1217.8 1550.3 1176.2 1566.9 1176.2 1526.7 1106.5 1486.5 1176.2 1503.1 1176.2 1482.8 1217.8 1499.8 1217.8 1482.8 1252.6 1570.6 1252.6 1553.6 1217.8 1570.6 1217.8"/>
  </g>
  <g>
    <rect class="st8" x="1728.8" y="1699.6" width="10.6" height="13.4"/>
    <polygon class="st6" points="1776.9 1664.8 1756.6 1623.2 1773.3 1623.2 1733.1 1553.5 1692.8 1623.2 1709.5 1623.2 1689.2 1664.8 1706.2 1664.8 1689.2 1699.6 1776.9 1699.6 1759.9 1664.8 1776.9 1664.8"/>
  </g>
  <g>
    <rect class="st8" x="1778" y="583.5" width="10.6" height="13.4"/>
    <polygon class="st6" points="1826.1 548.6 1805.8 507.1 1822.5 507.1 1782.3 437.4 1742 507.1 1758.7 507.1 1738.4 548.6 1755.4 548.6 1738.4 583.5 1826.1 583.5 1809.1 548.6 1826.1 548.6"/>
  </g>
  <g>
    <rect class="st8" x="1727.7" y="920.8" width="10.6" height="13.4"/>
    <polygon class="st6" points="1775.9 886 1755.6 844.4 1772.2 844.4 1732 774.7 1691.7 844.4 1708.4 844.4 1688.1 886 1705.1 886 1688.1 920.8 1775.9 920.8 1758.8 886 1775.9 886"/>
  </g>
  <g>
    <rect class="st8" x="1850.9" y="899.4" width="10.6" height="13.4"/>
    <polygon class="st6" points="1899 864.5 1878.7 823 1895.3 823 1855.1 753.3 1814.9 823 1831.5 823 1811.2 864.5 1828.2 864.5 1811.2 899.4 1899 899.4 1882 864.5 1899 864.5"/>
  </g>
  <g>
    <rect class="st8" x="1729.9" y="1206.4" width="10.6" height="13.4"/>
    <polygon class="st6" points="1778 1171.6 1757.7 1130 1774.4 1130 1734.2 1060.3 1693.9 1130 1710.6 1130 1690.3 1171.6 1707.3 1171.6 1690.3 1206.4 1778 1206.4 1761 1171.6 1778 1171.6"/>
  </g>
  <g>
    <rect class="st8" x="1629.2" y="1440.3" width="10.6" height="13.4"/>
    <polygon class="st6" points="1677.3 1405.5 1657 1364 1673.6 1364 1633.4 1294.3 1593.1 1364 1609.8 1364 1589.5 1405.5 1606.5 1405.5 1589.5 1440.3 1677.3 1440.3 1660.2 1405.5 1677.3 1405.5"/>
  </g>
  <g>
    <rect class="st8" x="1253.1" y="1053.5" width="10.6" height="13.4"/>
    <polygon class="st6" points="1301.2 1018.7 1280.9 977.1 1297.5 977.1 1257.3 907.5 1217.1 977.1 1233.7 977.1 1213.4 1018.7 1230.4 1018.7 1213.4 1053.5 1301.2 1053.5 1284.2 1018.7 1301.2 1018.7"/>
  </g>
  <g>
    <rect class="st8" x="1090.9" y="1118.5" width="10.6" height="13.4"/>
    <polygon class="st6" points="1139 1083.7 1118.7 1042.1 1135.4 1042.1 1095.1 972.5 1054.9 1042.1 1071.6 1042.1 1051.3 1083.7 1068.3 1083.7 1051.3 1118.5 1139 1118.5 1122 1083.7 1139 1083.7"/>
  </g>
  <g>
    <rect class="st8" x="1080.3" y="928.6" width="10.6" height="13.4"/>
    <polygon class="st6" points="1128.4 893.8 1108.1 852.2 1124.7 852.2 1084.5 782.5 1044.3 852.2 1060.9 852.2 1040.6 893.8 1057.6 893.8 1040.6 928.6 1128.4 928.6 1111.4 893.8 1128.4 893.8"/>
  </g>
  <g>
    <rect class="st8" x="946.8" y="1038.8" width="10.6" height="13.4"/>
    <polygon class="st6" points="994.9 1004 974.6 962.4 991.2 962.4 951 892.7 910.8 962.4 927.4 962.4 907.1 1004 924.1 1004 907.1 1038.8 994.9 1038.8 977.9 1004 994.9 1004"/>
  </g>
  <g>
    <rect class="st8" x="1397.2" y="1032.1" width="10.6" height="13.4"/>
    <polygon class="st6" points="1445.3 997.2 1425 955.7 1441.7 955.7 1401.5 886 1361.2 955.7 1377.9 955.7 1357.6 997.2 1374.6 997.2 1357.6 1032.1 1445.3 1032.1 1428.3 997.2 1445.3 997.2"/>
  </g>
  <g>
    <rect class="st8" x="1361.2" y="1332.4" width="10.6" height="13.4"/>
    <polygon class="st6" points="1409.3 1297.5 1389 1256 1405.6 1256 1365.4 1186.3 1325.2 1256 1341.8 1256 1321.5 1297.5 1338.5 1297.5 1321.5 1332.4 1409.3 1332.4 1392.3 1297.5 1409.3 1297.5"/>
  </g>
  <path class="st9" d="M575.7,1193c-61-61.8-83.2-94.5-153.8-31.5s-46.6,111.5,31.2,159.5,122.7,106,126.3,182.4-121.6,325.9,90.9,209.6c42.3-23.2,141-38.2,117.6-139.9s-76.2-164.4-107.4-205.8-105-174.3-105-174.3Z"/>
  <path class="st9" d="M1055.7,1558.2c28.9-31.9,45-76,28.9-97.9-23.9-32.4-95.9-.2-167.1-36.6-36.4-18.6-122-.5-125.8,30s42.7,89.9,62.1,136.4,32.6,101.6,42.8,109.4c25.5,19.6,59.5,54.4,104.6,62.9s40.1-66.9,83.4-86c25.6-11.3,9.7-31.2-4.2-43.2-12.6-10.8-46.5-51-24.6-75.1Z"/>
  <path class="st1" d="M675.6,235.1s8.9.6,21-6.9,31.7-18.5,31.3-31.4-15.7-7.9-12.6-21.4,16.3-28,39.2-26.1,26.6-2.8,55.5-2.8,14.9-12.1,29.9-11.2,4.2,19.7,24.3,19.9-9.8-12.9,6.5-17.1,48.5-13.5,50.9,6.5-2.8,28.5,5.1,28.5,27.5-5.1,40.6-1.9,18.7,11.7,38.3,9.3,4.7-9.8-8.9-18.2-32.2-31.7-16.3-45.3,14.5-15.9,36.9-6.1,38.1,20.6,78.7,20.6,82.1-15.5,109.2-11.6,30.9,33.5,58,35.1,27-22.6,46.4-22.6,19.4,36.3,32.9,36,48.3,37.3,48.3,59.6,114.6,52.2,109.2,105.4,1,56.1,19.3,56.1-45.4,14.5-53.2,0-2.1-39-27.1-68.3-74.4-50.1-100.4-66.3-37.7-53.9-62.8-53.9-60.9-10.6-77.3,9.7-31.5,21-63.6,24-101.7,11.5-123.9,0-3.2-20.2-50.9-20.2-54.5,1-98.9,1-61.8,5.5-75.4,25.9-20.4,22-28,32.1-25.5-33.2-39.3-32.1-42.8-6.5-42.8-6.5Z"/>
  <path class="st1" d="M1271.9,673.5c7.7-11.1,32.7-32.3,37.6-33.6s22.9.6,35.2,0,29.6,28.6,39.3,33.6,40.2,59.6,50.8,73,24.5,24.2,24.5,42.8,1.3,35.3-5.1,40.5-18.7-6.4-19.3-24.5-27-52-45-52.1-21.7-17.4-32.1-24.5-42.6-34.3-55.4-35.1-23.2.3-27.7,0-2.6-20.1-2.6-20.1Z"/>
  <path class="st1" d="M1173.6,1161.6c-4-3.3,5.7-10.2,12.9-10.5,7.3-.4,7.5,30.6,13.2,33.5,5.7,3,19.3,5.8,25.6,13.8,6.3,8,39.2,11.8,39.2,22.8s1.6,16.4-2.3,19.4-15.4,6.9-25.2,2.4c-14.9-6.9-22.2-12.2-32.9-12.3-10.7,0-13.5-17.7-19.7-21.9s5.6-33.3-11-47.3Z"/>
  <path class="st1" d="M540.3,1834.7c3.6,8,5.6,14.2,15.3,16.3,21.5,4.6,61.2-1.8,86.3-6.5s52.5-15.9,87.1-17.4,128.6-20.3,143.5-21.5,87.1,20,94.1,36.5,58,44.7,84.7,56.5,38.4,22.7,57.3,51,13.3,25.1,32.2,51,49.5,58,38.1,24.3-39.9-82.3-46.1-95.7-25.7-48.6-48.1-57.3-38.1-17.3-63.9-24.3l-25.9-7.1s-11.8-42.4-25.9-46.3-55.7-33.7-95.7-22.7-73.7,12.5-98,14.1-38.4,20.4-51.8,20-56.5,15-76.1,14.7-52.5,13.8-69,13.4-38,.9-38,.9Z"/>
  <g>
    <rect class="st8" x="1191" y="1827.6" width="10.6" height="13.4"/>
    <polygon class="st6" points="1239.1 1792.8 1218.8 1751.2 1235.4 1751.2 1195.2 1681.5 1155 1751.2 1171.6 1751.2 1151.3 1792.8 1168.3 1792.8 1151.3 1827.6 1239.1 1827.6 1222.1 1792.8 1239.1 1792.8"/>
  </g>
  <g>
    <rect class="st8" x="821.5" y="1663.1" width="10.6" height="13.4"/>
    <polygon class="st6" points="869.6 1628.3 849.4 1586.7 866 1586.7 825.8 1517 785.5 1586.7 802.2 1586.7 781.9 1628.3 798.9 1628.3 781.9 1663.1 869.6 1663.1 852.6 1628.3 869.6 1628.3"/>
  </g>
  <g>
    <rect class="st8" x="1461.5" y="746.1" width="10.6" height="13.4"/>
    <polygon class="st6" points="1509.6 711.3 1489.3 669.7 1505.9 669.7 1465.7 600 1425.5 669.7 1442.1 669.7 1421.8 711.3 1438.8 711.3 1421.8 746.1 1509.6 746.1 1492.6 711.3 1509.6 711.3"/>
  </g>
  <g>
    <rect class="st8" x="1040.6" y="301.2" width="10.6" height="13.4"/>
    <polygon class="st6" points="1088.7 266.3 1068.4 224.8 1085.1 224.8 1044.9 155.1 1004.6 224.8 1021.3 224.8 1001 266.3 1018 266.3 1001 301.2 1088.7 301.2 1071.7 266.3 1088.7 266.3"/>
  </g>
  <g>
    <rect class="st8" x="1455.1" y="239.6" width="10.6" height="13.4"/>
    <polygon class="st6" points="1503.2 204.8 1482.9 163.2 1499.5 163.2 1459.3 93.5 1419.1 163.2 1435.7 163.2 1415.4 204.8 1432.4 204.8 1415.4 239.6 1503.2 239.6 1486.2 204.8 1503.2 204.8"/>
  </g>
  <g>
    <rect class="st8" x="670.3" y="196.7" width="10.6" height="13.4"/>
    <polygon class="st6" points="718.4 161.9 698.1 120.3 714.7 120.3 674.5 50.6 634.3 120.3 650.9 120.3 630.6 161.9 647.6 161.9 630.6 196.7 718.4 196.7 701.4 161.9 718.4 161.9"/>
  </g>
  <path class="st1" d="M230.2,1287.7c5.5-4.5,13.6-3.3,17.5,2.6,13.7,20.8,43,65.7,53.3,83.7s7.7,10.7,12.2,15.1c13.5,13.2,28.6,23.4,25.9,54.6s-7.4,99.7-31.7,109.8-30.8,18.3-48.1-11.8-36.5-52.1-13.2-52.1,50.4-37.1,56-54.2,22.5-26.7,7.4-37.6-11.1-26-25.5-27.2-73.1,1.8-75.6-24.8-1.9-36.3,8.1-46,9.4-8.5,13.7-12.1Z"/>
  <path class="st3" d="M286.7,1556.8s14,39,17.4,63.1-11.8,57.8,17.2,72.2,44.9,64.5,70.5,79.2,60.6,33.8,109.9,49.2,40.6,14.9,53.7,18.3"/>
  <path class="st7" d="M1030.5,1586.5c-18.8-.9-48,16.5-35.3,40.1s11,28.6,29.3,33,33.7,6.1,39.2,0-20.4-19.5-16.6-33,8.8-13.4,3.3-25.6-19.9-14.5-19.9-14.5Z"/>
  <path class="st7" d="M944.7,1551.7c-16.9-.6-34.1,16.5-22.6,30.9,11.5,14.4,12.7,1.1,29.2,3.8,16.4,2.7,25.5,4.7,30.4,1s2-9-5.9-13.9c-8-4.9-7.8-7.9-10.1-17.5-2.1-8.7-21-4.4-21-4.4Z"/>
  <path class="st7" d="M932.7,1499.6c-9,10.5,2.5,36.8,24.9,42.2s11.5-3.2,22.7-11.5c11.2-8.3-.4-13.6-2.3-20.2s-5-5.1-14.6-4.3c-9.7.8-2.9-8.9-15.2-15.9-11.2-6.4-15.5,9.7-15.5,9.7Z"/>
  <path class="st7" d="M695.1,1550.7c-13.6,2.5-17.7,46.7-3.5,64.9,14.2,18.2,6.1,19.2,20,19.8,13.9.6,3.8-22.2,6.4-28.5s0-13.4-.5-23.5-1.8-15.4-7-28.5c-4.8-11.9-15.5-4.2-15.5-4.2Z"/>
  <path class="st7" d="M618.3,1372.6c-10.3,7,5,48.1,24.6,59.6,19.6,11.5,13.2,15.2,25.2,10.9,11.9-4.3-6.3-21.3-6.8-27.9s-5.7-12.1-10.3-21-8-13.2-18-23.2c-9.1-9.1-14.7,1.6-14.7,1.6Z"/>
  <g>
    <g>
      <path class="st0" d="M956.5,1766.8c0,0-.1,0-.2,0-1.7,0-2.9-1.5-2.8-3.2l.2-3c0-1.7,1.5-2.9,3.2-2.8,1.7,0,2.9,1.5,2.8,3.2l-.2,3c0,1.6-1.4,2.8-3,2.8Z"/>
      <path class="st0" d="M957.4,1751.6c0,0-.1,0-.2,0-1.7,0-2.9-1.5-2.8-3.2l.3-6.1c0-1.7,1.5-2.9,3.2-2.8,1.7,0,2.9,1.5,2.8,3.2l-.3,6.1c0,1.6-1.4,2.8-3,2.8ZM958.4,1733.2c0,0-.1,0-.2,0-1.7,0-2.9-1.5-2.8-3.2l.3-6.1c0-1.7,1.5-2.9,3.2-2.8,1.7,0,2.9,1.5,2.8,3.2l-.3,6.1c0,1.6-1.4,2.8-3,2.8ZM959.3,1714.8c0,0-.1,0-.2,0-1.7,0-2.9-1.5-2.8-3.2l.3-6.1c0-1.7,1.5-2.9,3.2-2.8,1.7,0,2.9,1.5,2.8,3.2l-.3,6.1c0,1.6-1.4,2.8-3,2.8ZM960.3,1696.5c0,0-.1,0-.2,0-1.7,0-2.9-1.5-2.8-3.2l.3-6.1c0-1.7,1.5-2.9,3.2-2.8,1.7,0,2.9,1.5,2.8,3.2l-.3,6.1c0,1.6-1.4,2.8-3,2.8ZM961.3,1678.1c0,0-.1,0-.2,0-1.7,0-2.9-1.5-2.8-3.2l.3-6.1c0-1.7,1.5-2.9,3.2-2.8,1.7,0,2.9,1.5,2.8,3.2l-.3,6.1c0,1.6-1.4,2.8-3,2.8ZM962.3,1659.7c0,0-.1,0-.2,0-1.7,0-2.9-1.5-2.8-3.2l.3-6.1c0-1.7,1.5-2.9,3.2-2.8,1.7,0,2.9,1.5,2.8,3.2l-.3,6.1c0,1.6-1.4,2.8-3,2.8Z"/>
      <path class="st0" d="M963.3,1641.4c0,0-.1,0-.2,0-1.7,0-2.9-1.5-2.8-3.2l.2-3c0-1.7,1.5-2.9,3.2-2.8,1.7,0,2.9,1.5,2.8,3.2l-.2,3c0,1.6-1.4,2.8-3,2.8Z"/>
    </g>
    <g>
      <path class="st0" d="M913,1760.8c-.1,0-.2,0-.4,0-1.6-.2-2.8-1.7-2.6-3.3l.4-3c.2-1.6,1.7-2.8,3.3-2.6,1.6.2,2.8,1.7,2.6,3.3l-.4,3c-.2,1.5-1.5,2.6-3,2.6Z"/>
      <path class="st0" d="M914.9,1744.7c-.1,0-.2,0-.4,0-1.6-.2-2.8-1.7-2.6-3.3l.8-6.5c.2-1.6,1.7-2.8,3.3-2.6,1.6.2,2.8,1.7,2.6,3.3l-.8,6.5c-.2,1.5-1.5,2.6-3,2.6ZM917.2,1725.1c-.1,0-.2,0-.4,0-1.6-.2-2.8-1.7-2.6-3.3l.8-6.5c.2-1.6,1.7-2.8,3.3-2.6,1.6.2,2.8,1.7,2.6,3.3l-.8,6.5c-.2,1.5-1.5,2.6-3,2.6Z"/>
      <path class="st0" d="M919.6,1705.6c-.1,0-.2,0-.4,0-1.6-.2-2.8-1.7-2.6-3.3l.4-3c.2-1.6,1.7-2.8,3.3-2.6,1.6.2,2.8,1.7,2.6,3.3l-.4,3c-.2,1.5-1.5,2.6-3,2.6Z"/>
    </g>
    <g>
      <path class="st0" d="M869.7,1705.9c-.1,0-.2,0-.4,0-1.6-.2-2.8-1.7-2.6-3.3l.4-3c.2-1.6,1.7-2.8,3.3-2.6,1.6.2,2.8,1.7,2.6,3.3l-.4,3c-.2,1.5-1.5,2.6-3,2.6Z"/>
      <path class="st0" d="M871.6,1689.9c-.1,0-.2,0-.4,0-1.6-.2-2.8-1.7-2.6-3.3l.8-6.5c.2-1.6,1.7-2.8,3.3-2.6,1.6.2,2.8,1.7,2.6,3.3l-.8,6.5c-.2,1.5-1.5,2.6-3,2.6ZM873.9,1670.3c-.1,0-.2,0-.4,0-1.6-.2-2.8-1.7-2.6-3.3l.8-6.5c.2-1.6,1.7-2.8,3.3-2.6,1.6.2,2.8,1.7,2.6,3.3l-.8,6.5c-.2,1.5-1.5,2.6-3,2.6Z"/>
      <path class="st0" d="M876.2,1650.7c-.1,0-.2,0-.4,0-1.6-.2-2.8-1.7-2.6-3.3l.4-3c.2-1.6,1.7-2.8,3.3-2.6,1.6.2,2.8,1.7,2.6,3.3l-.4,3c-.2,1.5-1.5,2.6-3,2.6Z"/>
    </g>
    <g>
      <path class="st0" d="M922.1,1697.3c-.5,0-1.1-.1-1.6-.5-1.4-.9-1.8-2.7-.9-4.1l1.6-2.5c.9-1.4,2.7-1.8,4.1-.9,1.4.9,1.8,2.7.9,4.1l-1.6,2.5c-.6.9-1.5,1.4-2.5,1.4Z"/>
      <path class="st0" d="M930.7,1683.6c-.5,0-1.1-.1-1.6-.5-1.4-.9-1.8-2.7-.9-4.1l3.5-5.6c.9-1.4,2.7-1.8,4.1-.9,1.4.9,1.8,2.7.9,4.1l-3.5,5.6c-.6.9-1.5,1.4-2.5,1.4ZM941.2,1666.9c-.5,0-1.1-.1-1.6-.5-1.4-.9-1.8-2.7-.9-4.1l3.5-5.6c.9-1.4,2.7-1.8,4.1-.9,1.4.9,1.8,2.7.9,4.1l-3.5,5.6c-.6.9-1.5,1.4-2.5,1.4Z"/>
      <path class="st0" d="M951.7,1650.3c-.5,0-1.1-.1-1.6-.5-1.4-.9-1.8-2.7-.9-4.1l1.6-2.5c.9-1.4,2.7-1.8,4.1-.9s1.8,2.7.9,4.1l-1.6,2.5c-.6.9-1.5,1.4-2.5,1.4Z"/>
    </g>
    <g>
      <path class="st0" d="M935.1,1647.7c-1.5,0-2.8-1.1-3-2.7l-.3-3c-.2-1.6,1-3.1,2.6-3.3,1.6-.2,3.1,1,3.3,2.6l.3,3c.2,1.6-1,3.1-2.6,3.3-.1,0-.2,0-.3,0Z"/>
      <path class="st0" d="M933.3,1631.7c-1.5,0-2.8-1.1-3-2.7l-.7-6.5c-.2-1.6,1-3.1,2.6-3.3,1.6-.2,3.1,1,3.3,2.6l.7,6.5c.2,1.6-1,3.1-2.6,3.3-.1,0-.2,0-.3,0ZM931.1,1612.1c-1.5,0-2.8-1.1-3-2.7l-.7-6.5c-.2-1.6,1-3.1,2.6-3.3,1.6-.2,3.1,1,3.3,2.6l.7,6.5c.2,1.6-1,3.1-2.6,3.3-.1,0-.2,0-.3,0Z"/>
      <path class="st0" d="M928.9,1592.5c-1.5,0-2.8-1.1-3-2.7l-.3-3c-.2-1.6,1-3.1,2.6-3.3,1.6-.2,3.1,1,3.3,2.6l.3,3c.2,1.6-1,3.1-2.6,3.3-.1,0-.2,0-.3,0Z"/>
    </g>
    <g>
      <path class="st0" d="M861.1,1710.1c-.3,0-.6,0-.9-.1-1.6-.5-2.5-2.2-2-3.7l.9-2.9c.5-1.6,2.2-2.5,3.7-2,1.6.5,2.5,2.2,2,3.7l-.9,2.9c-.4,1.3-1.6,2.1-2.9,2.1Z"/>
      <path class="st0" d="M865.8,1694.7c-.3,0-.6,0-.9-.1-1.6-.5-2.5-2.2-2-3.7l1.9-6.3c.5-1.6,2.2-2.5,3.7-2,1.6.5,2.5,2.2,2,3.7l-1.9,6.3c-.4,1.3-1.6,2.1-2.9,2.1ZM871.6,1675.8c-.3,0-.6,0-.9-.1-1.6-.5-2.5-2.2-2-3.7l1.9-6.3c.5-1.6,2.2-2.5,3.7-2,1.6.5,2.5,2.2,2,3.7l-1.9,6.3c-.4,1.3-1.6,2.1-2.9,2.1Z"/>
      <path class="st0" d="M877.3,1656.9c-.3,0-.6,0-.9-.1-1.6-.5-2.5-2.2-2-3.7l.9-2.9c.5-1.6,2.2-2.5,3.7-2,1.6.5,2.5,2.2,2,3.7l-.9,2.9c-.4,1.3-1.6,2.1-2.9,2.1Z"/>
    </g>
    <g>
      <path class="st0" d="M1057.5,1845c-1.3,0-2.5-.9-2.9-2.2l-.8-2.9c-.4-1.6.5-3.2,2.1-3.7,1.6-.4,3.2.5,3.7,2.1l.8,2.9c.4,1.6-.5,3.2-2.1,3.7-.3,0-.5.1-.8.1Z"/>
      <path class="st0" d="M1054,1831.7c-1.3,0-2.5-.9-2.9-2.2l-1.4-5.2c-.4-1.6.5-3.2,2.1-3.7,1.6-.4,3.2.5,3.7,2.1l1.4,5.2c.4,1.6-.5,3.2-2.1,3.7-.3,0-.5.1-.8.1ZM1049.8,1816.2c-1.3,0-2.5-.9-2.9-2.2l-1.4-5.2c-.4-1.6.5-3.2,2.1-3.7,1.6-.4,3.2.5,3.7,2.1l1.4,5.2c.4,1.6-.5,3.2-2.1,3.7-.3,0-.5.1-.8.1ZM1045.7,1800.6c-1.3,0-2.5-.9-2.9-2.2l-1.4-5.2c-.4-1.6.5-3.2,2.1-3.7,1.6-.4,3.2.5,3.7,2.1l1.4,5.2c.4,1.6-.5,3.2-2.1,3.7-.3,0-.5.1-.8.1ZM1041.6,1785c-1.3,0-2.5-.9-2.9-2.2l-1.4-5.2c-.4-1.6.5-3.2,2.1-3.7,1.6-.4,3.2.5,3.7,2.1l1.4,5.2c.4,1.6-.5,3.2-2.1,3.7-.3,0-.5.1-.8.1Z"/>
      <path class="st0" d="M1037.5,1769.4c-1.3,0-2.5-.9-2.9-2.2l-.8-2.9c-.4-1.6.5-3.2,2.1-3.7,1.6-.4,3.2.5,3.7,2.1l.8,2.9c.4,1.6-.5,3.2-2.1,3.7-.3,0-.5.1-.8.1Z"/>
    </g>
    <g>
      <path class="st0" d="M744.4,1749.2c-1.1,0-2.2-.7-2.7-1.8l-1.2-2.7c-.7-1.5,0-3.3,1.5-4,1.5-.7,3.3,0,4,1.5l1.2,2.7c.7,1.5,0,3.3-1.5,4-.4.2-.8.3-1.2.3Z"/>
      <path class="st0" d="M738.2,1735.3c-1.1,0-2.2-.7-2.7-1.8l-2.5-5.6c-.7-1.5,0-3.3,1.5-4,1.5-.7,3.3,0,4,1.5l2.5,5.6c.7,1.5,0,3.3-1.5,4-.4.2-.8.3-1.2.3ZM730.6,1718.5c-1.1,0-2.2-.7-2.7-1.8l-2.5-5.6c-.7-1.5,0-3.3,1.5-4,1.5-.7,3.3,0,4,1.5l2.5,5.6c.7,1.5,0,3.3-1.5,4-.4.2-.8.3-1.2.3ZM723.1,1701.8c-1.1,0-2.2-.7-2.7-1.8l-2.5-5.6c-.7-1.5,0-3.3,1.5-4,1.5-.7,3.3,0,4,1.5l2.5,5.6c.7,1.5,0,3.3-1.5,4-.4.2-.8.3-1.2.3ZM715.5,1685c-1.1,0-2.2-.7-2.7-1.8l-2.5-5.6c-.7-1.5,0-3.3,1.5-4,1.5-.7,3.3,0,4,1.5l2.5,5.6c.7,1.5,0,3.3-1.5,4-.4.2-.8.3-1.2.3ZM708,1668.2c-1.1,0-2.2-.7-2.7-1.8l-2.5-5.6c-.7-1.5,0-3.3,1.5-4,1.5-.7,3.3,0,4,1.5l2.5,5.6c.7,1.5,0,3.3-1.5,4-.4.2-.8.3-1.2.3ZM700.4,1651.4c-1.1,0-2.2-.7-2.7-1.8l-2.5-5.6c-.7-1.5,0-3.3,1.5-4,1.5-.7,3.3,0,4,1.5l2.5,5.6c.7,1.5,0,3.3-1.5,4-.4.2-.8.3-1.2.3Z"/>
      <path class="st0" d="M692.9,1634.7c-1.1,0-2.2-.7-2.7-1.8l-1.2-2.7c-.7-1.5,0-3.3,1.5-4,1.5-.7,3.3,0,4,1.5l1.2,2.7c.7,1.5,0,3.3-1.5,4-.4.2-.8.3-1.2.3Z"/>
    </g>
    <g>
      <path class="st0" d="M812.2,1680.2c-.7,0-1.4-.2-2-.7l-2.3-2c-1.3-1.1-1.4-3-.3-4.2,1.1-1.3,3-1.4,4.2-.3l2.3,2c1.3,1.1,1.4,3,.3,4.2-.6.7-1.4,1-2.3,1Z"/>
      <path class="st0" d="M800.6,1670.3c-.7,0-1.4-.2-2-.7l-4.7-4c-1.3-1.1-1.4-3-.3-4.2,1.1-1.3,3-1.4,4.2-.3l4.7,4c1.3,1.1,1.4,3,.3,4.2-.6.7-1.4,1-2.3,1ZM786.6,1658.3c-.7,0-1.4-.2-2-.7l-4.7-4c-1.3-1.1-1.4-3-.3-4.2,1.1-1.3,3-1.4,4.2-.3l4.7,4c1.3,1.1,1.4,3,.3,4.2-.6.7-1.4,1-2.3,1ZM772.7,1646.4c-.7,0-1.4-.2-2-.7l-4.7-4c-1.3-1.1-1.4-3-.3-4.2,1.1-1.3,3-1.4,4.2-.3l4.7,4c1.3,1.1,1.4,3,.3,4.2-.6.7-1.4,1-2.3,1ZM758.7,1634.4c-.7,0-1.4-.2-2-.7l-4.7-4c-1.3-1.1-1.4-3-.3-4.2,1.1-1.3,3-1.4,4.2-.3l4.7,4c1.3,1.1,1.4,3,.3,4.2-.6.7-1.4,1-2.3,1ZM744.7,1622.4c-.7,0-1.4-.2-2-.7l-4.7-4c-1.3-1.1-1.4-3-.3-4.2,1.1-1.3,3-1.4,4.2-.3l4.7,4c1.3,1.1,1.4,3,.3,4.2-.6.7-1.4,1-2.3,1ZM730.8,1610.5c-.7,0-1.4-.2-2-.7l-4.7-4c-1.3-1.1-1.4-3-.3-4.2,1.1-1.3,3-1.4,4.2-.3l4.7,4c1.3,1.1,1.4,3,.3,4.2-.6.7-1.4,1-2.3,1Z"/>
      <path class="st0" d="M716.8,1598.5c-.7,0-1.4-.2-2-.7l-2.3-2c-1.3-1.1-1.4-3-.3-4.2,1.1-1.3,3-1.4,4.2-.3l2.3,2c1.3,1.1,1.4,3,.3,4.2-.6.7-1.4,1-2.3,1Z"/>
    </g>
    <g>
      <path class="st0" d="M607.6,1774.3c-.1,0-.3,0-.4,0-1.6-.2-2.8-1.7-2.6-3.4l.4-3c.2-1.6,1.7-2.8,3.4-2.6,1.6.2,2.8,1.7,2.6,3.4l-.4,3c-.2,1.5-1.5,2.6-3,2.6Z"/>
      <path class="st0" d="M609.6,1759.1c-.1,0-.3,0-.4,0-1.6-.2-2.8-1.7-2.6-3.4l.8-6.1c.2-1.6,1.7-2.8,3.4-2.6,1.6.2,2.8,1.7,2.6,3.4l-.8,6.1c-.2,1.5-1.5,2.6-3,2.6ZM612,1740.9c-.1,0-.3,0-.4,0-1.6-.2-2.8-1.7-2.6-3.4l.8-6.1c.2-1.6,1.7-2.8,3.4-2.6,1.6.2,2.8,1.7,2.6,3.4l-.8,6.1c-.2,1.5-1.5,2.6-3,2.6ZM614.4,1722.6c-.1,0-.3,0-.4,0-1.6-.2-2.8-1.7-2.6-3.4l.8-6.1c.2-1.6,1.7-2.8,3.4-2.6,1.6.2,2.8,1.7,2.6,3.4l-.8,6.1c-.2,1.5-1.5,2.6-3,2.6ZM616.7,1704.4c-.1,0-.3,0-.4,0-1.6-.2-2.8-1.7-2.6-3.4l.8-6.1c.2-1.6,1.7-2.8,3.4-2.6,1.6.2,2.8,1.7,2.6,3.4l-.8,6.1c-.2,1.5-1.5,2.6-3,2.6ZM619.1,1686.2c-.1,0-.3,0-.4,0-1.6-.2-2.8-1.7-2.6-3.4l.8-6.1c.2-1.6,1.7-2.8,3.4-2.6,1.6.2,2.8,1.7,2.6,3.4l-.8,6.1c-.2,1.5-1.5,2.6-3,2.6ZM621.5,1667.9c-.1,0-.3,0-.4,0-1.6-.2-2.8-1.7-2.6-3.4l.8-6.1c.2-1.6,1.7-2.8,3.4-2.6,1.6.2,2.8,1.7,2.6,3.4l-.8,6.1c-.2,1.5-1.5,2.6-3,2.6Z"/>
      <path class="st0" d="M623.8,1649.7c-.1,0-.3,0-.4,0-1.6-.2-2.8-1.7-2.6-3.4l.4-3c.2-1.6,1.7-2.8,3.4-2.6,1.6.2,2.8,1.7,2.6,3.4l-.4,3c-.2,1.5-1.5,2.6-3,2.6Z"/>
    </g>
  </g>
</svg>