<?xml version="1.0" encoding="UTF-8"?>
<svg xmlns="http://www.w3.org/2000/svg" xmlns:xlink="http://www.w3.org/1999/xlink" version="1.1" viewBox="0 0 255.1 155.9"><metadata><c2pa:manifest xmlns:c2pa="http://c2pa.org/manifest">AAA0RGp1bWIAAAAeanVtZGMycGEAEQAQgAAAqgA4m3EDYzJwYQAAADQeanVtYgAAAEdqdW1kYzJtYQARABCAAACqADibcQN1cm46dXVpZDpjZDc2MjcxZS0wOThlLTQ5NDQtOTVjNy0zYWU4NWE5MmI4ZTAAAAABtGp1bWIAAAApanVtZGMyYXMAEQAQgAAAqgA4m3EDYzJwYS5hc3NlcnRpb25zAAAAANdqdW1iAAAAJmp1bWRjYm9yABEAEIAAAKoAOJtxA2MycGEuYWN0aW9ucwAAAACpY2JvcqFnYWN0aW9uc4GjZmFjdGlvbmtjMnBhLmVkaXRlZG1zb2Z0d2FyZUFnZW50bUFkb2JlIEZpcmVmbHlxZGlnaXRhbFNvdXJjZVR5cGV4U2h0dHA6Ly9jdi5pcHRjLm9yZy9uZXdzY29kZXMvZGlnaXRhbHNvdXJjZXR5cGUvY29tcG9zaXRlV2l0aFRyYWluZWRBbGdvcml0aG1pY01lZGlhAAAArGp1bWIAAAAoanVtZGNib3IAEQAQgAAAqgA4m3EDYzJwYS5oYXNoLmRhdGEAAAAAfGNib3KlamV4Y2x1c2lvbnOBomVzdGFydBjhZmxlbmd0aBlFsGRuYW1lbmp1bWJmIG1hbmlmZXN0Y2FsZ2ZzaGEyNTZkaGFzaFggsvpIWTm5+y14YZy5EiRwFLp/Xr3V+zhNonpzu19+xgRjcGFkSQAAAAAAAAAAAAAAAgtqdW1iAAAAJGp1bWRjMmNsABEAEIAAAKoAOJtxA2MycGEuY2xhaW0AAAAB32Nib3KoaGRjOnRpdGxlb0dlbmVyYXRlZCBJbWFnZWlkYzpmb3JtYXRtaW1hZ2Uvc3ZnK3htbGppbnN0YW5jZUlEeCx4bXA6aWlkOjIzNWFlMGUxLThiY2ItNDJjMC04MzU3LWY5MWZkMGY0ZTYwY29jbGFpbV9nZW5lcmF0b3J4NkFkb2JlX0lsbHVzdHJhdG9yLzI4LjcgYWRvYmVfYzJwYS8wLjcuNiBjMnBhLXJzLzAuMjUuMnRjbGFpbV9nZW5lcmF0b3JfaW5mb4G/ZG5hbWVxQWRvYmUgSWxsdXN0cmF0b3JndmVyc2lvbmQyOC43/2lzaWduYXR1cmV4GXNlbGYjanVtYmY9YzJwYS5zaWduYXR1cmVqYXNzZXJ0aW9uc4KiY3VybHgnc2VsZiNqdW1iZj1jMnBhLmFzc2VydGlvbnMvYzJwYS5hY3Rpb25zZGhhc2hYIEppwb3/qN5BMHi+JO3M+DE6wdFklTRWcaANawazN9SvomN1cmx4KXNlbGYjanVtYmY9YzJwYS5hc3NlcnRpb25zL2MycGEuaGFzaC5kYXRhZGhhc2hYIKaHGJURs28sqOM0mTyvLG802yVX0cuwz8KHAgnbtFi0Y2FsZ2ZzaGEyNTYAADAQanVtYgAAAChqdW1kYzJjcwARABCAAACqADibcQNjMnBhLnNpZ25hdHVyZQAAAC/gY2JvctKEWQzvogE4JBghglkGPTCCBjkwggQhoAMCAQICEBWN/yesI9K4JUtOYzceHZ4wDQYJKoZIhvcNAQELBQAwdTELMAkGA1UEBhMCVVMxIzAhBgNVBAoTGkFkb2JlIFN5c3RlbXMgSW5jb3Jwb3JhdGVkMR0wGwYDVQQLExRBZG9iZSBUcnVzdCBTZXJ2aWNlczEiMCAGA1UEAxMZQWRvYmUgUHJvZHVjdCBTZXJ2aWNlcyBHMzAeFw0yNDEwMTUwMDAwMDBaFw0yNTEwMTUyMzU5NTlaMIGrMRMwEQYDVQQDDApBZG9iZSBDMlBBMSgwJgYDVQQLDB9Db250ZW50IEF1dGhlbnRpY2l0eSBJbml0aWF0aXZlMRMwEQYDVQQKDApBZG9iZSBJbmMuMREwDwYDVQQHDAhTYW4gSm9zZTETMBEGA1UECAwKQ2FsaWZvcm5pYTELMAkGA1UEBhMCVVMxIDAeBgkqhkiG9w0BCQEWEWNhaS1vcHNAYWRvYmUuY29tMIIBIjANBgkqhkiG9w0BAQEFAAOCAQ8AMIIBCgKCAQEAwxDBgdB9PXLpMXPw5oNgYkFWDPP1aSfth9TZPINOtOQlhp1v4h+hMxZWFjkZ3RJRuoSBrsSSYBaEfiDMKisi/sOxuFHKBV//l1rv3SrjrixANXIlqjGdIYydaMaFa/5ovFz/m4+SUz0ccYzqw+vSAzuRySGnpgm8Gmj+SEJcL/GIHzqU9bUy3NsizY2oY28yj32rbkOqeADSM51OqIJKloEBFFexzMunzpU+K2sLqheoR8FJMaR0fGXa/gqRzhkiBFhwUhLPS9s6+TCnz09UZMlXbdG/iFKj3UPFUDjqh0wtFgcz24DrUlaWeiltKHouymBHuirzvmOG0VtSPepxOQIDAQABo4IBjDCCAYgwDAYDVR0TAQH/BAIwADAOBgNVHQ8BAf8EBAMCB4AwHgYDVR0lBBcwFQYJKoZIhvcvAQEMBggrBgEFBQcDBDCBjgYDVR0gBIGGMIGDMIGABgkqhkiG9y8BAgMwczBxBggrBgEFBQcCAjBlDGNZb3UgYXJlIG5vdCBwZXJtaXR0ZWQgdG8gdXNlIHRoaXMgTGljZW5zZSBDZXJ0aWZpY2F0ZSBleGNlcHQgYXMgcGVybWl0dGVkIGJ5IHRoZSBsaWNlbnNlIGFncmVlbWVudC4wXQYDVR0fBFYwVDBSoFCgToZMaHR0cDovL3BraS1jcmwuc3ltYXV0aC5jb20vY2FfN2E1YzNhMGM3MzExNzQwNmFkZDE5MzEyYmMxYmMyM2YvTGF0ZXN0Q1JMLmNybDA3BggrBgEFBQcBAQQrMCkwJwYIKwYBBQUHMAGGG2h0dHA6Ly9wa2ktb2NzcC5zeW1hdXRoLmNvbTAfBgNVHSMEGDAWgBRXKXoyTcz+5DVOwB8kc85zU6vfajANBgkqhkiG9w0BAQsFAAOCAgEAqrl6FLQ+c9LYaf0igyTgErNL9XmmieiT3ohKFevJ3BN7kWkZD1znbVw3XnX5tgQaKq+AiSCldNxYEKqU+Rq9Lr26GGglBSA0s/Ds2kw+2LlnTmojAHCH3CvVRbhGHHrashmnfgwmF1TSkaWk7NxEhbt9wQoiEMkLSQeM4S4Cu+176FzEdy+zzkDkRWqeSOQO/qG2WRto/vIq30ECf6v6FtazJI1CWIqhBK5oJioSNbLsCVJhar3Uca9D11ujeZW4k2jPCsnzriTmFqVftd3k2SXUQg7wQcQcXfKBItWZt8ztn0IYoZzJa1x9l9dvXKAJvNsDoz4uDerS8z9rzLsEQvzL1yPbTp4+/6mTTAWsoaDtmkZgm3X+sffPX3XzMFmfzIHiYfUja5nKK2bs4P71tit/1U/FD2xdlpzZSupRqCMGz+UTeXI8IrN5ZR/+F8rSsmRAStjnggz/wDucwcDlJbY4/RKq3BrAi4LamLMIfwo/dbL55TDlIOd7HCfmSgabc1WO0Kji3LW/VZnP9VG8WiUG+WqtN1OQIAZmFUOWdXQGLag+I1OaZ1BXJDNsJiXcg2TGNBSEPo44Akfn9MzFGKyB5UurMN4NH0qlamhrhKiV0+b73Fjx330P/frxBmzx5NpAQhNKksx+F4z1S8Ay1o2TBIkkeAFbDzy8f/FxuytZBqUwggahMIIEiaADAgECAhAMqLZUe4nm0gaJdc2Lm4niMA0GCSqGSIb3DQEBCwUAMGwxCzAJBgNVBAYTAlVTMSMwIQYDVQQKExpBZG9iZSBTeXN0ZW1zIEluY29ycG9yYXRlZDEdMBsGA1UECxMUQWRvYmUgVHJ1c3QgU2VydmljZXMxGTAXBgNVBAMTEEFkb2JlIFJvb3QgQ0EgRzIwHhcNMTYxMTI5MDAwMDAwWhcNNDExMTI4MjM1OTU5WjB1MQswCQYDVQQGEwJVUzEjMCEGA1UEChMaQWRvYmUgU3lzdGVtcyBJbmNvcnBvcmF0ZWQxHTAbBgNVBAsTFEFkb2JlIFRydXN0IFNlcnZpY2VzMSIwIAYDVQQDExlBZG9iZSBQcm9kdWN0IFNlcnZpY2VzIEczMIICIjANBgkqhkiG9w0BAQEFAAOCAg8AMIICCgKCAgEAtx8uvb0Js1xIbP4Mg65sAepReCWkgD6Jp7GyiGTa9ol2gfn5HfOV/HiYjZiOz+TuHFU+DXNad86xEqgVeGVMlvIHGe/EHcKBxvEDXdlTXB5zIEkfl0/SGn7J6vTX8MNybfSi95eQDUOZ9fjCaq+PBFjS5ZfeNmzi/yR+MsA0jKKoWarSRCFFFBpUFQWfAgLyXOyxOnXQOQudjxNj6Wu0X0IB13+IH11WcKcWEWXM4j4jh6hLy29Cd3EoVG3oxcVenMF/EMgD2tXjx4NUbTNB1/g9+MR6Nw5Mhp5k/g3atNExAxhtugC+T3SDShSEJfs2quiiRUHtX3RhOcK1s1OJgT5s2s9xGy5/uxVpcAIaK2KiDJXW3xxN8nXPmk1NSVu/mxtfapr4TvSJbhrU7UA3qhQY9n4On2sbH1X1Tw+7LTek8KCA5ZDghOERPiIp/Jt893qov1bE5rJkagcVg0Wqjh89NhCaBA8VyRt3ovlGyCKdNV2UL3bn5vdFsTk7qqmp9makz1/SuVXYxIf6L6+8RXOatXWaPkmucuLE1TPOeP7S1N5JToFCs80l2D2EtxoQXGCR48K/cTUR5zV/fQ+hdIOzoo0nFn77Y8Ydd2k7/x9BE78pmoeMnw6VXYfXCuWEgj6p7jpbLoxQMoWMCVzlg72WVNhJFlSw4aD8fc6ezeECAwEAAaOCATQwggEwMBIGA1UdEwEB/wQIMAYBAf8CAQAwNQYDVR0fBC4wLDAqoCigJoYkaHR0cDovL2NybC5hZG9iZS5jb20vYWRvYmVyb290ZzIuY3JsMA4GA1UdDwEB/wQEAwIBBjAUBgNVHSUEDTALBgkqhkiG9y8BAQcwVwYDVR0gBFAwTjBMBgkqhkiG9y8BAgMwPzA9BggrBgEFBQcCARYxaHR0cHM6Ly93d3cuYWRvYmUuY29tL21pc2MvcGtpL3Byb2Rfc3ZjZV9jcHMuaHRtbDAkBgNVHREEHTAbpBkwFzEVMBMGA1UEAxMMU1lNQy00MDk2LTMzMB0GA1UdDgQWBBRXKXoyTcz+5DVOwB8kc85zU6vfajAfBgNVHSMEGDAWgBSmHOFtVCRMqI9Icr9uqYzV5Owx1DANBgkqhkiG9w0BAQsFAAOCAgEAcc7lB4ym3C3cyOA7ZV4AkoGV65UgJK+faThdyXzxuNqlTQBlOyXBGFyevlm33BsGO1mDJfozuyLyT2+7IVxWFvW5yYMV+5S1NeChMXIZnCzWNXnuiIQSdmPD82TEVCkneQpFET4NDwSxo8/ykfw6Hx8fhuKz0wjhjkWMXmK3dNZXIuYVcbynHLyJOzA+vWU3sH2T0jPtFp7FN39GZne4YG0aVMlnHhtHhxaXVCiv2RVoR4w1QtvKHQpzfPObR53Cl74iLStGVFKPwCLYRSpYRF7J6vVS/XxW4LzvN2b6VEKOcvJmN3LhpxFRl3YYzW+dwnwtbuHW6WJlmjffbLm1MxLFGlG95aCz31X8wzqYNsvb9+5AXcv8Ll69tLXmO1OtsY/3wILNUEp4VLZTE3wqm3n8hMnClZiiKyZCS7L4E0mClbx+BRSMH3eVo6jgve41/fK3FQM4QCNIkpGs7FjjLy+ptC+JyyWqcfvORrFV/GOgB5hD+G5ghJcIpeigD/lHsCRYsOa5sFdqREhwIWLmSWtNwfLZdJ3dkCc7yRpm3gal6qRfTkYpxTNxxKyvKbkaJDoxR9vtWrC3iNrQd9VvxC3TXtuzoHbqumeqgcAqefWF9u6snQ4Q9FkXzeuJArNuSvPIhgBjVtggH0w0vm/lmCQYiC/Y12GeCxfgYlL33buiZnNpZ1RzdKFpdHN0VG9rZW5zgaFjdmFsWQ45MIIONTADAgEAMIIOLAYJKoZIhvcNAQcCoIIOHTCCDhkCAQMxDzANBglghkgBZQMEAgEFADCBggYLKoZIhvcNAQkQAQSgcwRxMG8CAQEGCWCGSAGG/WwHATAxMA0GCWCGSAFlAwQCAQUABCAt7iFEItLEQMQecqXP12iBlbZUeNE0iAgtDfvSupQ+vgIQfBek0sb8kbL2OVmKTLy3WRgPMjAyNTAzMTEwODM2MzVaAgkA5mMGHSmPEy6gggvAMIIFCjCCAvKgAwIBAgIQDAsvx3p4z7rtZVZUwZokAzANBgkqhkiG9w0BAQsFADBjMQswCQYDVQQGEwJVUzEXMBUGA1UEChMORGlnaUNlcnQsIEluYy4xOzA5BgNVBAMTMkRpZ2lDZXJ0IFRydXN0ZWQgRzQgUlNBNDA5NiBTSEEyNTYgVGltZVN0YW1waW5nIENBMB4XDTI0MTEyMDAwMDAwMFoXDTM2MDIxOTIzNTk1OVowWzELMAkGA1UEBhMCVVMxETAPBgNVBAoTCERpZ2lDZXJ0MTkwNwYDVQQDEzBFQ0MyNTZfU0hBMjU2X1RpbWVzdGFtcF9SZXNwb25kZXJfQWRvYmVfTk9WXzIwMjQwWTATBgcqhkjOPQIBBggqhkjOPQMBBwNCAATQ/B6F+IGYpiqQQLxOfqkUmeTmSRWZzxSCtwM82siW/SbXazktRyEWmwIVs+8PJjhV9C4fUJ23IGRxsfzJM8leo4IBizCCAYcwDgYDVR0PAQH/BAQDAgeAMAwGA1UdEwEB/wQCMAAwFgYDVR0lAQH/BAwwCgYIKwYBBQUHAwgwIAYDVR0gBBkwFzAIBgZngQwBBAIwCwYJYIZIAYb9bAcBMB8GA1UdIwQYMBaAFLoW2W1NhS9zKXaaL3WMaiCPnshvMB0GA1UdDgQWBBTs0RxvfOegTeQxP4cACNSt1H02uzBaBgNVHR8EUzBRME+gTaBLhklodHRwOi8vY3JsMy5kaWdpY2VydC5jb20vRGlnaUNlcnRUcnVzdGVkRzRSU0E0MDk2U0hBMjU2VGltZVN0YW1waW5nQ0EuY3JsMIGQBggrBgEFBQcBAQSBgzCBgDAkBggrBgEFBQcwAYYYaHR0cDovL29jc3AuZGlnaWNlcnQuY29tMFgGCCsGAQUFBzAChkxodHRwOi8vY2FjZXJ0cy5kaWdpY2VydC5jb20vRGlnaUNlcnRUcnVzdGVkRzRSU0E0MDk2U0hBMjU2VGltZVN0YW1waW5nQ0EuY3J0MA0GCSqGSIb3DQEBCwUAA4ICAQCi7MEg8nkvLauLI7cAj21DgnMErh0mntCt4c4tsW9yJQZdZv1n8E1dueayb6IiZ8mYambImrTeuVKwGqUSITZTiVhtFRP3zRD9DpFk+Ex4P010IStH/eD1lgK6bVfaY0gvzcIRQP3CwIzqBZAE81c5QINjPs81cvJLOFKd/cX7zOhoQvrziNDy15UNT5fuURe2fioANQsRNYOmVXAdg2TK7OktYD+EH/D8gWr7nHQhRJMuD54GNjiZnNPnYXz6F3j7Bu2aVlirvQGAAsrW27Lqhg9ksW5+aL+g9/lyqRoMrWLSy4KDQaztPB+PKskecO1R7dbJbw7UBFVl+GbGaUc4x6HvVLNNL5hHjiLrf9A4zxe52e9ZqpSU7kDu7dsRXvm+uLLMXjHFSx/j0stIcxnQHwOL4A5RRuUH1Xw1wz2CiGvIHNcoYrkqfkb6TsKJU7ntDqNKFKZ349sBErTdXwVoId4zS/cV/A5rO1Kw5aNO/zUTCtQkbcMg88XGWqImaYmIHhIvHaE1nRdPWCa0QhrxvioeP45p4/zqd/JrVbNsoEuEBSRIPB3+ViLaoFlimZRUePzwKYvyTrd6g72mVtF4Prbbvy1kqCUmsZDMFqn33DR0N8Qzqkzir3bufNyI5k95Rq3NXcbfNYDx9qZ8gjCu4NHtSxAdJKswzb9gi6jyFTCCBq4wggSWoAMCAQICEAc2N7ckVHzYR6z9KGYqXlswDQYJKoZIhvcNAQELBQAwYjELMAkGA1UEBhMCVVMxFTATBgNVBAoTDERpZ2lDZXJ0IEluYzEZMBcGA1UECxMQd3d3LmRpZ2ljZXJ0LmNvbTEhMB8GA1UEAxMYRGlnaUNlcnQgVHJ1c3RlZCBSb290IEc0MB4XDTIyMDMyMzAwMDAwMFoXDTM3MDMyMjIzNTk1OVowYzELMAkGA1UEBhMCVVMxFzAVBgNVBAoTDkRpZ2lDZXJ0LCBJbmMuMTswOQYDVQQDEzJEaWdpQ2VydCBUcnVzdGVkIEc0IFJTQTQwOTYgU0hBMjU2IFRpbWVTdGFtcGluZyBDQTCCAiIwDQYJKoZIhvcNAQEBBQADggIPADCCAgoCggIBAMaGNQZJs8E9cklRVcclA8TykTepl1Gh1tKD0Z5Mom2gsMyD+Vr2EaFEFUJfpIjzaPp985yJC3+dH54PMx9QEwsmc5Zt+FeoAn39Q7SE2hHxc7Gz7iuAhIoiGN/r2j3EF3+rGSs+QtxnjupRPfDWVtTnKC3r07G1decfBmWNlCnT2exp39mQh0YAe9tEQYncfGpXevA3eZ9drMvohGS0UvJ2R/dhgxndX7RUCyFobjchu0CsX7LeSn3O9TkSZ+8OpWNs5KbFHc02DVzV5huowWR0QKfAcsW6Th+xtVhNef7Xj3OTrCw54qVI1vCwMROpVymWJy71h6aPTnYVVSZwmCZ/oBpHIEPjQ2OAe3VuJyWQmDo4EbP29p7mO1vsgd4iFNmCKseSv6De4z6ic/rnH1pslPJSlRErWHRAKKtzQ87fSqEcazjFKfPKqpZzQmiftkaznTqj1QPgv/CiPMpC3BhIfxQ0z9JMq++bPf4OuGQq+nUoJEHtQr8FnGZJUlD0UfM2SU2LINIsVzV5K6jzRWC8I41Y99xh3pP+OcD5sjClTNfpmEpYPtMDiP6zj9NeS3YSUZPJjAw7W4oiqMEmCPkUEBIDfV8ju2TjY+Cm4T72wnSyPx4JduyrXUZ14mCjWAkBKAAOhFTuzuldyF4wEr1GnrXTdrnSDmuZDNIztM2xAgMBAAGjggFdMIIBWTASBgNVHRMBAf8ECDAGAQH/AgEAMB0GA1UdDgQWBBS6FtltTYUvcyl2mi91jGogj57IbzAfBgNVHSMEGDAWgBTs1+OC0nFdZEzfLmc/57qYrhwPTzAOBgNVHQ8BAf8EBAMCAYYwEwYDVR0lBAwwCgYIKwYBBQUHAwgwdwYIKwYBBQUHAQEEazBpMCQGCCsGAQUFBzABhhhodHRwOi8vb2NzcC5kaWdpY2VydC5jb20wQQYIKwYBBQUHMAKGNWh0dHA6Ly9jYWNlcnRzLmRpZ2ljZXJ0LmNvbS9EaWdpQ2VydFRydXN0ZWRSb290RzQuY3J0MEMGA1UdHwQ8MDowOKA2oDSGMmh0dHA6Ly9jcmwzLmRpZ2ljZXJ0LmNvbS9EaWdpQ2VydFRydXN0ZWRSb290RzQuY3JsMCAGA1UdIAQZMBcwCAYGZ4EMAQQCMAsGCWCGSAGG/WwHATANBgkqhkiG9w0BAQsFAAOCAgEAfVmOwJO2b5ipRCIBfmbW2CFC4bAYLhBNE88wU86/GPvHUF3iSyn7cIoNqilp/GnBzx0H6T5gyNgL5Vxb122H+oQgJTQxZ822EpZvxFBMYh0MCIKoFr2pVs8Vc40BIiXOlWk/R3f7cnQU1/+rT4osequFzUNf7WC2qk+RZp4snuCKrOX9jLxkJodskr2dfNBwCnzvqLx1T7pa96kQsl3p/yhUifDVinF2ZdrM8HKjI/rAJ4JErpknG6skHibBt94q6/aesXmZgaNWhqsKRcnfxI2g55j7+6adcq/Ex8HBanHZxhOACcS2n82HhyS7T6NJuXdmkfFynOlLAlKnN36TU6w7HQhJD5TNOXrd/yVjmScsPT9rp/Fmw0HNT7ZAmyEhQNC3EyTN3B14OuSereU0cZLXJmvkOHOrpgFPvT87eK1MrfvElXvtCl8zOYdBeHo46Zzh3SP9HSjTx/no8Zhf+yvYfvJGnXUsHicsJttvFXseGYs2uJPU5vIXmVnKcPA3v5gA3yAWTyf7YGcWoWa63VXAOimGsJigK+2VQbc61RWYMbRiCQ8KvYHZE/6/pNHzV9m8BPqC3jLfBInwAM1dwvnQI38AC+R2AibZ8GV2QqYphwlHK+Z/GqSFD/yYlvZVVCsfgPrA8g4r5db7qS9EFUrnEw4d2zc4GqEr9u3WfPwxggG4MIIBtAIBATB3MGMxCzAJBgNVBAYTAlVTMRcwFQYDVQQKEw5EaWdpQ2VydCwgSW5jLjE7MDkGA1UEAxMyRGlnaUNlcnQgVHJ1c3RlZCBHNCBSU0E0MDk2IFNIQTI1NiBUaW1lU3RhbXBpbmcgQ0ECEAwLL8d6eM+67WVWVMGaJAMwDQYJYIZIAWUDBAIBBQCggdEwGgYJKoZIhvcNAQkDMQ0GCyqGSIb3DQEJEAEEMBwGCSqGSIb3DQEJBTEPFw0yNTAzMTEwODM2MzVaMCsGCyqGSIb3DQEJEAIMMRwwGjAYMBYEFPcTAlRkG5zO0lEtYsW/nymEjPz4MC8GCSqGSIb3DQEJBDEiBCDTRt9S1Wkap17ocd1cLZaieG2o33MOkYuiDYuLKmovBTA3BgsqhkiG9w0BCRACLzEoMCYwJDAiBCC5eiZoHRjpuXxjPvhIOWRVdZeW2lBDRCyPjM3lJ+AAqTAKBggqhkjOPQQDAgRHMEUCIQDxg76OWQ9urLcxmwcSstvOAaTfVBvgL+TZQHR3X0CeAQIgE4dI3vj7HbSNW4SiFIzP7tvMjhaJfvIk/kdQjqjDKQpjcGFkWROEAAAAAAAAAAAAAAAAAAAAAAAAAAAAAAAAAAAAAAAAAAAAAAAAAAAAAAAAAAAAAAAAAAAAAAAAAAAAAAAAAAAAAAAAAAAAAAAAAAAAAAAAAAAAAAAAAAAAAAAAAAAAAAAAAAAAAAAAAAAAAAAAAAAAAAAAAAAAAAAAAAAAAAAAAAAAAAAAAAAAAAAAAAAAAAAAAAAAAAAAAAAAAAAAAAAAAAAAAAAAAAAAAAAAAAAAAAAAAAAAAAAAAAAAAAAAAAAAAAAAAAAAAAAAAAAAAAAAAAAAAAAAAAAAAAAAAAAAAAAAAAAAAAAAAAAAAAAAAAAAAAAAAAAAAAAAAAAAAAAAAAAAAAAAAAAAAAAAAAAAAAAAAAAAAAAAAAAAAAAAAAAAAAAAAAAAAAAAAAAAAAAAAAAAAAAAAAAAAAAAAAAAAAAAAAAAAAAAAAAAAAAAAAAAAAAAAAAAAAAAAAAAAAAAAAAAAAAAAAAAAAAAAAAAAAAAAAAAAAAAAAAAAAAAAAAAAAAAAAAAAAAAAAAAAAAAAAAAAAAAAAAAAAAAAAAAAAAAAAAAAAAAAAAAAAAAAAAAAAAAAAAAAAAAAAAAAAAAAAAAAAAAAAAAAAAAAAAAAAAAAAAAAAAAAAAAAAAAAAAAAAAAAAAAAAAAAAAAAAAAAAAAAAAAAAAAAAAAAAAAAAAAAAAAAAAAAAAAAAAAAAAAAAAAAAAAAAAAAAAAAAAAAAAAAAAAAAAAAAAAAAAAAAAAAAAAAAAAAAAAAAAAAAAAAAAAAAAAAAAAAAAAAAAAAAAAAAAAAAAAAAAAAAAAAAAAAAAAAAAAAAAAAAAAAAAAAAAAAAAAAAAAAAAAAAAAAAAAAAAAAAAAAAAAAAAAAAAAAAAAAAAAAAAAAAAAAAAAAAAAAAAAAAAAAAAAAAAAAAAAAAAAAAAAAAAAAAAAAAAAAAAAAAAAAAAAAAAAAAAAAAAAAAAAAAAAAAAAAAAAAAAAAAAAAAAAAAAAAAAAAAAAAAAAAAAAAAAAAAAAAAAAAAAAAAAAAAAAAAAAAAAAAAAAAAAAAAAAAAAAAAAAAAAAAAAAAAAAAAAAAAAAAAAAAAAAAAAAAAAAAAAAAAAAAAAAAAAAAAAAAAAAAAAAAAAAAAAAAAAAAAAAAAAAAAAAAAAAAAAAAAAAAAAAAAAAAAAAAAAAAAAAAAAAAAAAAAAAAAAAAAAAAAAAAAAAAAAAAAAAAAAAAAAAAAAAAAAAAAAAAAAAAAAAAAAAAAAAAAAAAAAAAAAAAAAAAAAAAAAAAAAAAAAAAAAAAAAAAAAAAAAAAAAAAAAAAAAAAAAAAAAAAAAAAAAAAAAAAAAAAAAAAAAAAAAAAAAAAAAAAAAAAAAAAAAAAAAAAAAAAAAAAAAAAAAAAAAAAAAAAAAAAAAAAAAAAAAAAAAAAAAAAAAAAAAAAAAAAAAAAAAAAAAAAAAAAAAAAAAAAAAAAAAAAAAAAAAAAAAAAAAAAAAAAAAAAAAAAAAAAAAAAAAAAAAAAAAAAAAAAAAAAAAAAAAAAAAAAAAAAAAAAAAAAAAAAAAAAAAAAAAAAAAAAAAAAAAAAAAAAAAAAAAAAAAAAAAAAAAAAAAAAAAAAAAAAAAAAAAAAAAAAAAAAAAAAAAAAAAAAAAAAAAAAAAAAAAAAAAAAAAAAAAAAAAAAAAAAAAAAAAAAAAAAAAAAAAAAAAAAAAAAAAAAAAAAAAAAAAAAAAAAAAAAAAAAAAAAAAAAAAAAAAAAAAAAAAAAAAAAAAAAAAAAAAAAAAAAAAAAAAAAAAAAAAAAAAAAAAAAAAAAAAAAAAAAAAAAAAAAAAAAAAAAAAAAAAAAAAAAAAAAAAAAAAAAAAAAAAAAAAAAAAAAAAAAAAAAAAAAAAAAAAAAAAAAAAAAAAAAAAAAAAAAAAAAAAAAAAAAAAAAAAAAAAAAAAAAAAAAAAAAAAAAAAAAAAAAAAAAAAAAAAAAAAAAAAAAAAAAAAAAAAAAAAAAAAAAAAAAAAAAAAAAAAAAAAAAAAAAAAAAAAAAAAAAAAAAAAAAAAAAAAAAAAAAAAAAAAAAAAAAAAAAAAAAAAAAAAAAAAAAAAAAAAAAAAAAAAAAAAAAAAAAAAAAAAAAAAAAAAAAAAAAAAAAAAAAAAAAAAAAAAAAAAAAAAAAAAAAAAAAAAAAAAAAAAAAAAAAAAAAAAAAAAAAAAAAAAAAAAAAAAAAAAAAAAAAAAAAAAAAAAAAAAAAAAAAAAAAAAAAAAAAAAAAAAAAAAAAAAAAAAAAAAAAAAAAAAAAAAAAAAAAAAAAAAAAAAAAAAAAAAAAAAAAAAAAAAAAAAAAAAAAAAAAAAAAAAAAAAAAAAAAAAAAAAAAAAAAAAAAAAAAAAAAAAAAAAAAAAAAAAAAAAAAAAAAAAAAAAAAAAAAAAAAAAAAAAAAAAAAAAAAAAAAAAAAAAAAAAAAAAAAAAAAAAAAAAAAAAAAAAAAAAAAAAAAAAAAAAAAAAAAAAAAAAAAAAAAAAAAAAAAAAAAAAAAAAAAAAAAAAAAAAAAAAAAAAAAAAAAAAAAAAAAAAAAAAAAAAAAAAAAAAAAAAAAAAAAAAAAAAAAAAAAAAAAAAAAAAAAAAAAAAAAAAAAAAAAAAAAAAAAAAAAAAAAAAAAAAAAAAAAAAAAAAAAAAAAAAAAAAAAAAAAAAAAAAAAAAAAAAAAAAAAAAAAAAAAAAAAAAAAAAAAAAAAAAAAAAAAAAAAAAAAAAAAAAAAAAAAAAAAAAAAAAAAAAAAAAAAAAAAAAAAAAAAAAAAAAAAAAAAAAAAAAAAAAAAAAAAAAAAAAAAAAAAAAAAAAAAAAAAAAAAAAAAAAAAAAAAAAAAAAAAAAAAAAAAAAAAAAAAAAAAAAAAAAAAAAAAAAAAAAAAAAAAAAAAAAAAAAAAAAAAAAAAAAAAAAAAAAAAAAAAAAAAAAAAAAAAAAAAAAAAAAAAAAAAAAAAAAAAAAAAAAAAAAAAAAAAAAAAAAAAAAAAAAAAAAAAAAAAAAAAAAAAAAAAAAAAAAAAAAAAAAAAAAAAAAAAAAAAAAAAAAAAAAAAAAAAAAAAAAAAAAAAAAAAAAAAAAAAAAAAAAAAAAAAAAAAAAAAAAAAAAAAAAAAAAAAAAAAAAAAAAAAAAAAAAAAAAAAAAAAAAAAAAAAAAAAAAAAAAAAAAAAAAAAAAAAAAAAAAAAAAAAAAAAAAAAAAAAAAAAAAAAAAAAAAAAAAAAAAAAAAAAAAAAAAAAAAAAAAAAAAAAAAAAAAAAAAAAAAAAAAAAAAAAAAAAAAAAAAAAAAAAAAAAAAAAAAAAAAAAAAAAAAAAAAAAAAAAAAAAAAAAAAAAAAAAAAAAAAAAAAAAAAAAAAAAAAAAAAAAAAAAAAAAAAAAAAAAAAAAAAAAAAAAAAAAAAAAAAAAAAAAAAAAAAAAAAAAAAAAAAAAAAAAAAAAAAAAAAAAAAAAAAAAAAAAAAAAAAAAAAAAAAAAAAAAAAAAAAAAAAAAAAAAAAAAAAAAAAAAAAAAAAAAAAAAAAAAAAAAAAAAAAAAAAAAAAAAAAAAAAAAAAAAAAAAAAAAAAAAAAAAAAAAAAAAAAAAAAAAAAAAAAAAAAAAAAAAAAAAAAAAAAAAAAAAAAAAAAAAAAAAAAAAAAAAAAAAAAAAAAAAAAAAAAAAAAAAAAAAAAAAAAAAAAAAAAAAAAAAAAAAAAAAAAAAAAAAAAAAAAAAAAAAAAAAAAAAAAAAAAAAAAAAAAAAAAAAAAAAAAAAAAAAAAAAAAAAAAAAAAAAAAAAAAAAAAAAAAAAAAAAAAAAAAAAAAAAAAAAAAAAAAAAAAAAAAAAAAAAAAAAAAAAAAAAAAAAAAAAAAAAAAAAAAAAAAAAAAAAAAAAAAAAAAAAAAAAAAAAAAAAAAAAAAAAAAAAAAAAAAAAAAAAAAAAAAAAAAAAAAAAAAAAAAAAAAAAAAAAAAAAAAAAAAAAAAAAAAAAAAAAAAAAAAAAAAAAAAAAAAAAAAAAAAAAAAAAAAAAAAAAAAAAAAAAAAAAAAAAAAAAAAAAAAAAAAAAAAAAAAAAAAAAAAAAAAAAAAAAAAAAAAAAAAAAAAAAAAAAAAAAAAAAAAAAAAAAAAAAAAAAAAAAAAAAAAAAAAAAAAAAAAAAAAAAAAAAAAAAAAAAAAAAAAAAAAAAAAAAAAAAAAAAAAAAAAAAAAAAAAAAAAAAAAAAAAAAAAAAAAAAAAAAAAAAAAAAAAAAAAAAAAAAAAAAAAAAAAAAAAAAAAAAAAAAAAAAAAAAAAAAAAAAAAAAAAAAAAAAAAAAAAAAAAAAAAAAAAAAAAAAAAAAAAAAAAAAAAAAAAAAAAAAAAAAAAAAAAAAAAAAAAAAAAAAAAAAAAAAAAAAAAAAAAAAAAAAAAAAAAAAAAAAAAAAAAAAAAAAAAAAAAAAAAAAAAAAAAAAAAAAAAAAAAAAAAAAAAAAAAAAAAAAAAAAAAAAAAAAAAAAAAAAAAAAAAAAAAAAAAAAAAAAAAAAAAAAAAAAAAAAAAAAAAAAAAAAAAAAAAAAAAAAAAAAAAAAAAAAAAAAAAAAAAAAAAAAAAAAAAAAAAAAAAAAAAAAAAAAAAAAAAAAAAAAAAAAAAAAAAAAAAAAAAAAAAAAAAAAAAAAAAAAAAAAAAAAAAAAAAAAAAAAAAAAAAAAAAAAAAAAAAAAAAAAAAAAAAAAAAAAAAAAAAAAAAAAAAAAAAAAAAAAAAAAAAAAAAAAAAAAAAAAAAAAAAAAAAAAAAAAAAAAAAAAAAAAAAAAAAAAAAAAAAAAAAAAAAAAAAAAAAAAAAAAAAAAAAAAAAAAAAAAAAAAAAAAAAAAAAAAAAAAAAAAAAAAAAAAAAAAAAAAAAAAAAAAAAAAAAAAAAAAAAAAAAAAAAAAAAAAAAAAAAAAAAAAAAAAAAAAAAAAAAAAAAAAAAAAAAAAAAAAAAAAAAAAAAAAAAAAAAAAAAAAAAAAAAAAAAAAAAAAAAAAAAAAAAAAAAAAAAAAAAAAAAAAAAAAAAAAAAAAAAAAAAAAAAAAAAAAAAAAAAAAAAAAAAAAAAAAAAAAAAAAAAAAAAAAAAAAAAAAAAAAAAAAAAAAAAAAAAAAAAAAAAAAAAAAAAAAAAAAAAAAAAAAAAAAAAAAAAAAAAAAAAAAAAAAAAAAAAAAAAAAAAAAAAAAAAAAAAAAAAAAAAAAAAAAAAAAAAAAAAAAAAAAAAAAAAAAAAAAAAAAAAAAAAAAAAAAAAAAAAAAAAAAAAAAAAAAAAAAAAAAAAAAAAAAAAAAAAAAAAAAAAAAAAAAAAAAAAAAAAAAAAAAAAAAAAAAAAAAAAAAAAAAAAAAAAAAAAAAAAAAAAAAAAAAAAAAAAAAAAAAAAAAAAAAAAAAAAAAAAAAAAAAAAAAAAAAAAAAAAAAAAAAAAAAAAAAAAAAAAAAAAAAAAAAAAAAAAAAAAAAAAAAAAAAAAAAAAAAAAAAAAAAAAAAAAAAAAAAAAAAAAAAAAAAAAAAAAAAAAAAAAAAAAAAAAAAAAAAAAAAAAAAAAAAAAAAAAAAAAAAAAAAAAAAAAAAAAAAAAAAAAAAAAAAAAAAAAAAAAAAAAAAAAAAAAAAAAAAAAAAAAAAAAAAAAAAAAAAAAAAAAAAAAAAAAAAAAAAAAAAAAAAAAAAAAAAAAAAAAAAAAAAAAAAAAAAAAAAAAAAAAAAAAAAAAAAAAAAAAAAAAAAAAAAAAAAAAAAAAAAAAAAAAAAAAAAAAAAAAAAAAAAAAAAAAAAAAAAAAAAAAAAAAAAAAAAAAAAAAAAAAAAAAAAAAAAAAAAAAAAAAAAAAAAAAAAAAAAAAAAAAAAAAAAAAAAAAAAAAAAAAAAAAAAAAAAAAAAAAAAAAAAAAAAAAAAAAAAAAAAAAAAAAAAAAAAAAAAAAAAAAAAAAAAAAAAAAAAAAAAAAAAAAAAAAAAAAAAAAAAAAAAAAAAAAAAAAAAAAAAAAAAAAAAAAAAAAAAAAAAAAAAAAAAAAAAAAAAAAAAAAAAAAAAAAAAAAAAAAAAAAAAAAAAAAAAAAAAAAAAAAAAAAAAAAAAAAAAAAAAAAAAAAAAAAAAAAAAAAAAAAAAAAAAAAAAAAAAAAAAAAAAAAAAAAAAAAAAAAAAAAAAAAAAAAAAAAAAAAAAAAAAAAAAAAAAAAAAAAAAAAAAAAAAAAAAAAAAAAAAAAAAAAAAAAAAAAAAAAAAAAAAAAAAAAAAAAAAAAAAAAAAAAAAAAAAAAAAAAAAAAAAAAAAAAAAAAAAAAAAAAAAAAAAAAAAAAAAAAAAAAAAAAAAAAAAAAAAAAAAAAAAAAAAAAAAAAAAAAAAAAAAAAAAAAAAAAAAAAAAAAAAAAAAAAAAAAAAAAAAAAAAAAAAAAAAAAAAAAAAAAAAAAAAAAAAAAAAAAAAAAAAAAAAAAAAAAAAAAAAAAAAAAAAAAAAAAAAAAAAAAAAAAAAAAAAAAAAAAAAAAAAAAAAAAAAAAAAAAAAAAAAAAAAAAAAAAAAAAAAAAAAAAAAAAAAAAAAAAAAAAAAAAAAAAAAAAAAAAAAAAAAAAAAAAAAAAAAAAAAAAAAAAAAAAAAAAAAAAAAAAAAAAAAAAAAAAAAAAAAAAAAAAAAAAAAAAAAAAAAAAAAAAAAAAAAAAAAAAAAAAAAAAAAAAAAAAAAPZZAQB+fUk7choM9aq6BYBx3C+QkRu+zk9lE7+HAWfhQxCxpu1s2PF+khkimnaqyh69wcEf3wijJvNjqs2cvHrRvBgWI+zrvOTTxw5VRgL0pH6krxu+GGwc9FRqxd+VLQGpwxMh4QKnUEJ39QRB9eCz0fF/2Ca1WIOxUc/n5kmai+vsgorhsgVCtlzsC7+TCI0Ni4oYeCDu+CAgpGgNkhw5MSe2W8ALPbIyjyNI/n2AmukYMweS35Er+lpkxvESox/uoJBkYTWMah4bOIXsv9YNaAVyqGI11e2rc3ZLknMSEm65tfkEHtcxuaqZuUzK1RdwgK5LDK1n6RrhalHApWN+qIVC</c2pa:manifest></metadata>
  <defs>
    <style>
      .cls-1 {
        fill: #a59585;
      }

      .cls-2 {
        fill: #25a6c2;
      }

      .cls-3 {
        fill: #afafa3;
      }

      .cls-4 {
        fill: #a0a3a3;
      }

      .cls-5 {
        fill: #4a504c;
      }

      .cls-6 {
        fill: #2f3031;
      }

      .cls-7 {
        fill: #4d4131;
      }

      .cls-8 {
        fill: #858e81;
      }

      .cls-9 {
        fill: #99886e;
      }

      .cls-10 {
        fill: #a06e21;
      }

      .cls-11 {
        fill: #7f8181;
      }

      .cls-12 {
        fill: #b60e25;
      }

      .cls-13 {
        fill: #ea6514;
      }

      .cls-14 {
        fill: #a6d2d3;
      }

      .cls-15 {
        fill: #5abad0;
      }

      .cls-16 {
        fill: #ec4145;
      }

      .cls-17 {
        fill: #6d4820;
      }

      .cls-18 {
        fill: url(#linear-gradient);
      }

      .cls-19 {
        fill: #626564;
      }

      .cls-20 {
        fill: #393c39;
      }

      .cls-21 {
        fill: #eeddb3;
      }

      .cls-22 {
        fill: #dddcd7;
      }

      .cls-23 {
        fill: #f2efd9;
      }

      .cls-24 {
        fill: #f4e8cf;
      }

      .cls-25 {
        fill: #75584b;
      }

      .cls-26 {
        fill: #e7a23b;
      }

      .cls-27 {
        fill: #4d726d;
      }

      .cls-28 {
        fill: #6c7878;
      }

      .cls-29 {
        fill: #53585b;
      }

      .cls-30 {
        fill: #101011;
      }

      .cls-31 {
        fill: #fff;
      }

      .cls-32 {
        fill: #efef30;
      }

      .cls-33 {
        fill: #7bb7bc;
      }

      .cls-34 {
        fill: #587173;
      }

      .cls-35 {
        fill: #b7b0ae;
      }

      .cls-36 {
        fill: #f2d794;
      }

      .cls-37 {
        fill: #fefefe;
      }

      .cls-38 {
        fill: #31a19f;
      }

      .cls-39 {
        fill: #8b6222;
      }

      .cls-40 {
        fill: #36606d;
      }

      .cls-41 {
        fill: #745f43;
      }

      .cls-42 {
        fill: #297977;
      }

      .cls-43 {
        fill: #af7f26;
      }

      .cls-44 {
        fill: #e6af34;
      }

      .cls-45 {
        fill: #2b928e;
      }

      .cls-46 {
        fill: #b6b9b7;
      }

      .cls-47 {
        fill: #8c3214;
      }

      .cls-48 {
        fill: #3c686d;
      }

      .cls-49 {
        fill: #1f5654;
      }
    </style>
    <linearGradient id="linear-gradient" x1="138.6" y1="88.7" x2="139.4" y2="92.5" gradientUnits="userSpaceOnUse">
      <stop offset="0" stop-color="#3fb1b8"/>
      <stop offset="1" stop-color="#278986"/>
    </linearGradient>
  </defs>
  <!-- Generator: Adobe Illustrator 28.7.5, SVG Export Plug-In . SVG Version: 1.2.0 Build 176)  -->
  <g>
    <g id="Layer_1">
      <g>
        <rect class="cls-15" x="126.7" y="72.6" width="29" height="8.4"/>
        <path class="cls-37" d="M156.2,72.2h-30.3c-2.8,0-5.7,0-8.5,0-2,0-9.1-.1-9.9,0-.8,0-1,.6-1.9.4-1.1-.2-1.6-.7-2.2-1.6.2-.9,1.6-2.4,2.6-2.5.6,0,9.5.2,11.3.1-.5.8.2.7.3.6,0-.1,0-.4,0-.4,0,0,.4,0,.6,0,.2,0,.1-.4,1.8-.3,0,0,0,.5,0,.6,0,.1,0,.6,0,.6-1.2,0-2.9-.1-2.3.6,4.5.2,9.1.2,13.6.2,0,0,.2-.1.2-.1,2.2,0,4.4.2,6.5,0,0,0,.1.2.1.2,3.4,0,6.8,0,10.2-.2,0-.6.4-.4-.2-1,.9.1.4-.4.7-.5.2,0,2.8,0,3,0,.4-.2-.1-.3-.2-.4,0,0,0-.2,0-.2.4-.2.8.3,1.1.4.3,0,2,0,3.1,2,.6,1,.4,1.3.4,1.5Z"/>
        <path class="cls-22" d="M128,73c-.2.1-.5.5-.6.7,0,.3,0,5.7,0,6,0,.2.5.6.7.6.6.1,11,.1,11.6,0,.2,0,.5-.4.5-.6.1-.4,0-2,0-2.6,0,0-.1.1-.1-.5,0-.7.3-3-.2-3.4.5-.7,2.1-.2,2.4-.2-.2.2-.4.4-.5.6-.2.9.2,4.7,0,6,0,.2.4.6.5.6.6.2,11.5.2,12.1,0,.1,0,.4-.3.5-.6,0-.3-.2-1.4-.2-1.8.6,0,1.3,0,1.9,0,0,0,.1-.3.3,0,0,1.2,0,2.3,0,3.5h-30.5c0-1,0-7.3,0-7.7,0,0,0,0-.1-.2-.2-.8.7-.7,1.4-.6,0,0,.1.2.1.2h.3Z"/>
        <path class="cls-22" d="M156.2,72.2c0,.3-.1.3,0,.5.6,1.5.5,3.2.6,4.8-.7-.2-1.4-.4-2.2-.3,0-.2-.1-.5-.2-.6,0,0,0,0,0-.1,0-.3.1-.7,0-1.9,0-.5,0-1-.4-1.4,0,0-.4-.3-.5-.3-.9-.2-9.3,0-11.1,0-.2,0-1.9-.5-2.4.2-.1-.1-.6-.3-.8-.3-.6,0-9.4.1-11.2,0h-.3c0,0,0-.1-.1-.1-.7,0-1.6-.1-1.4.6-.1-.3-.7-.6-.8-.6-.4,0-7.1,0-7.5,0-.3,0-.6.2-.8.4.1-.4.4-.6.8-.7.1,0,.3-.1.3-.1,1.2-.2,7.3.2,7.7,0,0,0,0-.2,0-.2h30.3Z"/>
        <path class="cls-22" d="M149.8,68c.3.4.7,0,1.3.1,0,0,.4.2.4.2,0,0,0,.2,0,.2,0,0,.6.2.2.4-.2,0-2.8,0-3,0-.3.1.3.7-.7.5.6.6.2.4.2,1-3.4.1-6.8.2-10.2.2,0,0,0-.2-.1-.2-2.1.3-4.3,0-6.5,0,0,0-.2.1-.2.1-4.5,0-9.1,0-13.6-.2-.6-.8,1.1-.7,2.3-.6.1.8.8.9.9,0h14.1c0,.3,0,.4.2.6.7.5.7-.5.7-.6h8.7c.2,0-.2-.4.3,0,.1,1,.8.9.9,0,.3,0,3.1.3,2.2-.3,0,0-.4,0-.5,0,0-.5.3.2.4-.3,0,0-.2,0-.1-.1.1-.3.6-.3-.2-.9,0,0,0,0,0,0h2.5Z"/>
        <path class="cls-23" d="M156.9,81.3c0,.2,0,.3,0,.5h-30.4c0,0,0,0,0,0,0-.2,0-.4,0-.6h30.5Z"/>
        <path class="cls-15" d="M104.8,73.5c-.2.4-1.6,1.8-2.1,2.5-.5.6-4.5,7.1-2.7,2.9.6-1.3,3.2-5.1,4.3-5.7l.4.3Z"/>
        <path class="cls-38" d="M156.8,91c0,0,.2.6,0,1.1-1.1.2-2,0-2.5,0,0,0,0,.1-.1.1-.5,0-.9,0-1.4,0,0-1.3-.4-1.1-.4-1.1-.1-.3,0-.2,0-.3,0,0,.2.2.2.2.3,0,3.2-.2,4.2,0Z"/>
        <path class="cls-32" d="M98.8,86c.5,1,0,2.1,0,2.2-1.9.3-1.4-2.5,0-2.2Z"/>
        <path class="cls-42" d="M99.8,85.3h-.4c.1,2-.2,3.9,0,5.8,0,1.3,0,.8,2.6.9,0,0,0,.1,0,.1,0,.1,0,0-.1,0-1.1,0-2.3,0-3.4-.1.2-.2.6,0,.7-.2.1-.3,0-5.7,0-6.5.2-.2.4,0,.5,0Z"/>
        <path class="cls-42" d="M155.5,90.4c.4,0,.9,0,1.3,0,0,.2,0,.4,0,.6-.9-.1-3.9.1-4.2,0,0,0-.2-.2-.2-.2-.5-1.1-.9-1.8-1.8-2.7,1.1,1,1.4,1.5,2.1,2.7,1.3,0,3.3.3,2.8-.5Z"/>
        <path class="cls-4" d="M105.5,72.7c0,.1-.2.2-.2.4l-1.7-.4c0-.7-.7-.3-.4-1.6.7.8,1.1,1.4,2.2,1.6Z"/>
        <path class="cls-45" d="M154,93.1c-.6.2-2-.2-2.5,0,0,0,0,.1-.1.1-.1-.1-.2-.2-.3-.4.4,0,.2-.1.3-.1.1,0,2.3-.1,2.5,0,0,0,.2.3.2.4Z"/>
        <path class="cls-11" d="M101.9,93.5c0,0,0-.3,0-.4,0,0-.1-.6,0-.9-1.1,0-2.3,0-3.4-.1,0,0,0,1.3,0,1.4,0,.1,0,.3.1.4h3.2c0,0,0-.3,0-.4Z"/>
        <path class="cls-22" d="M156.7,77.6s0,0,0,.3c-.2-.3-.3,0-.3,0-.6,0-1.3-.1-1.9,0,0-.2,0-.3,0-.5.7,0,1.5,0,2.2.3Z"/>
        <g>
          <path class="cls-4" d="M157.4,93.6c-.2-.4,0,0-.2,0-.1,0-2.6,0-2.7,0,0,0,0-.1-.1-.2,0,0,0-.2-.1-.2v-.8c0,0,3.1,0,3.1,0,0,0,0,1.2,0,1.3Z"/>
          <path class="cls-11" d="M157.4,93.6s0,0,0,0h-3c-.1-.2,0-.1,0-.3.1,0,0,.2.1.2.1,0,2.6,0,2.7,0,0,0,0-.4.2,0Z"/>
        </g>
        <path class="cls-41" d="M98.9,88.2c0-.1.4-1.2,0-2.2.1,0,.3,0,.4.2.3.7-.3,3.2-.3,2Z"/>
        <path class="cls-4" d="M99.5,81.8h-.3c0-.2,0-.6,0-.7,0,0,.2,0,.2,0v.8Z"/>
        <path class="cls-40" d="M104.8,73.5l-.4-.3c.3-.2.6,0,.4.3Z"/>
        <g>
          <path class="cls-30" d="M151.1,92.9c0,.2.2.3.3.4,0,0,.2.2-1.1.1,0-1.1-.9-3-1.8-3.7-.8-.6-2.8-1.1-2.9-.6-2.2,0-3.8,2.3-3.6,4.4-.4,0-.8,0-1.2,0,0-.3.2,0,.4-.3,0,0,.1-.8.3-1.2,2-4.4,7.6-4.4,9.5,0,0,.2.1.7.2.9Z"/>
          <path class="cls-49" d="M152.9,92.2c.5,0,.9,0,1.4,0h0c0,0,0,.9,0,.9,0,0-.1,0-.2,0,0-.1,0-.4-.2-.4-.1,0-2.3,0-2.5,0,0,0,.1.2-.3.1,0-.2-.1-.7-.2-.9-1.9-4.4-7.5-4.4-9.5,0-.2.4-.3,1.1-.3,1.2-.5.1-.2-.2-.2-.3.2-4.5,7.9-7.4,10.4-.6.5,0,1,0,1.6,0Z"/>
          <path class="cls-18" d="M150,87.7s.6.5.6.5c.9.9,1.3,1.5,1.8,2.7,0,0-.1,0,0,.3,0,0,.4-.2.4,1.1-.5,0-1,0-1.6,0-2.5-6.7-10.3-3.8-10.4.6-.3.5-1.4,0-2.3.3,0,0,0-.2,0-.2,0,0,0-.1,0-.1-1.6.1-9.5-.2-10,0-.1,0-.1.1,0,.2,0,0,0,.1-.2.2h-2.3c0-.5-.2-.3-.2-.4,0,0,0-.2,0-.3,0-.3.4-.8.5-1.2h13.3c1.6-4.4,6.3-6,10.4-3.6Z"/>
        </g>
        <path class="cls-13" d="M156.9,87.7c0-.9,0-1.8,0-2.7,0,0,.2,0,.3,0,0,.1.4,3.3-.4,2.6Z"/>
        <path class="cls-46" d="M128.2,83.4c-1-.4-.6.2-.9.8,0,.2-.4,0-.2.3,0,0-.1,0-.1,0,0-.3,0-.6-.1-.9,0-.2.4-.3-.4-.2,0,0,0-.1-.1,0,0,0,0-.1,0-.2h.2c.6.2.3-1.1.9-.3,0,0-.2.1,0,.3,0,0,.8,0,.8.3Z"/>
        <path class="cls-34" d="M128.2,83.4c0,.4-.8-.3-.6.9.8.4-.1.2-.4.2-.2-.3.1-.1.2-.3.2-.5-.2-1.1.9-.8Z"/>
        <path class="cls-4" d="M125.9,72.3c0,0,0,.2,0,.2-.4.1-6.5-.3-7.7,0,0,0-.2.1-.3.1,0-.4-.5.1-.5-.3,2.8,0,5.7,0,8.5,0Z"/>
        <path class="cls-23" d="M117,81.3c0,.2,0,.3,0,.5h-17l.2-.5h16.8Z"/>
        <g>
          <path class="cls-2" d="M99.5,81.8h17.3v9.3c-.2.6,0-.6-.6-1.7-.6-.9-2.2-2.2-3.2-2.6-3.9-1.6-7.9.4-9.5,4.2h-1.6c0,.1,1.8.1,1.8.1h-.1c0,.1-4.2,0-4.2,0,0-1.9.2-3.9,0-5.8h.4c.4,0,.7.5.8,0l-1.3-.4c0-1,.2-2.6-.1-3,0,0,0,0,0,0h.3Z"/>
          <g>
            <path class="cls-42" d="M99.4,84.9h-.1c0-1,0-2,0-3,.3.4,0,2,.1,3Z"/>
            <g>
              <path class="cls-45" d="M113.8,83.3c-.2.3,0,.2,0,.2,0,0-.1.1,0,.1,0,0,1.4,0,1.6,0v.6c-.1,0,0,.1-.1.1-.9,0-1.8,0-2.7,0-.4-.3-.3-1.1.1-1.3-.1,0,.8.1,1,.1Z"/>
              <path class="cls-33" d="M115.9,83.5c-.1.2,0,.1-.2.1h-1.9c0,0-.3,0,0-.3.7,0,1.6-.3,2.2.1Z"/>
              <path class="cls-42" d="M112.6,84.5c.9,0,1.8,0,2.7,0,0,0,0-.1.1-.1.2,0,.4,0,.6-.1-.3.6-3.2.5-3.5.3Z"/>
              <path class="cls-42" d="M115.9,83.5c-.5-.5-1.5-.1-2.2-.1-.2,0-1.1,0-1-.1.1,0,3,0,3.1,0,.4.1,0,.3,0,.3Z"/>
              <path class="cls-48" d="M115.7,83.6c-.1,0-.1,0-.3,0-.2,0-1.5,0-1.6,0,0,0,0-.1,0-.1h1.9Z"/>
            </g>
          </g>
        </g>
        <path class="cls-37" d="M134.8,69.3c0,.2,0,.4,0,.6h-14.1c0-.2,0-.3,0-.4h13.7v-.4c.3.2,0,.4.4.3Z"/>
        <path class="cls-37" d="M144.7,68.7c0,.3,0,.8,0,1.1-.4-.4,0,0-.3,0h-8.7c0-.2,0-.4,0-.4,1.1-.2,8.1.2,8.5,0,0,0,0-.4,0-.5-.2-.4-7.5,0-8.5-.1,0,0,0,0,0-.1h8.9Z"/>
        <path class="cls-37" d="M147.3,69.4c.1,0,.4,0,.5,0,.9.6-1.9.3-2.2.3,0,0,0-.2,0-.3.5,0,1.2-.1,1.7,0Z"/>
        <path class="cls-37" d="M123,67.5c3.3,0,6.6,0,10,0,.6,0,1.2,0,1.8,0,.2.1.1.4.1.6,0,.2-.1.2-.1.2-4.4-.1-8.7.2-13.1,0,0,0-.5-.1-.8-.1,0,0-.4,0-.1-.6l2.2-.2Z"/>
        <path class="cls-37" d="M144.7,68.3c-2-.1-7.8.2-8.9,0,0,0-.1-.1-.2-.1,0-.2,0-.6.1-.7.4-.2,7.8.1,9,0,.3.3,0,.8,0,.9Z"/>
        <path class="cls-22" d="M134.5,69v.4h-13.8c0-.1,0-.3,0-.4.2,0,.1-.1.2-.1.7-.2,11.3.1,13.5,0,.1,0,.1.1.1.1Z"/>
        <path class="cls-4" d="M134.8,68.3s0,0,0,.4c-2.7,0-11.9-.3-13.6,0-.2-.2-.2-.3-.3-.4.2,0,.7.1.8.1,4.4,0,8.7-.2,13.1,0Z"/>
        <path class="cls-4" d="M144.7,68.3c0,0,0,.1,0,.2,0,0,0,0,0,.1h-8.9c0-.1,0-.2,0-.4,1.1.2,6.9-.1,8.9,0Z"/>
        <path class="cls-37" d="M121.2,68.7c1.7-.2,10.9.1,13.6,0,0,.2,0,.3,0,.5-.4.1-.1-.1-.3-.3,0,0,0,0-.1-.1-2.2.1-12.8-.2-13.5,0,0,0,0,.2-.2.1,0,0,0-.2.1-.3.1,0,.2,0,.3,0Z"/>
        <g>
          <path class="cls-5" d="M121.9,66.8c4.1,0,8.3,0,12.4,0,.2,0,.3,0,.5,0,3.1,0,6.3,0,9.5,0,.5,0,1,0,1.5,0h0c-.1.2-.3,0-.4.3,0,0,0,.9,0,1,0,0,0,0,0,0-.2,0-.4-1-.7-.4,0,.1.1.7-.1.7,0,0,0-.1,0-.2,0,0,.2-.6,0-.9-1.1.1-8.5-.2-9,0-.2,0,0,.6-.1.7-.2,0-.3-.3-.6,0,0-.3,0-.5-.1-.6-.6,0-1.2,0-1.8,0,0,0,0-.1,0-.1-.5-.1-9.4-.2-9.9,0,0,0,0,0,0,.1l-2.2.2c-.3.6,0,.5.1.6,0,0,0,.2.3.4-.1,0-.2,0-.3,0-.2,0,0,.2-.1.3,0,.1,0,.3,0,.4,0,.1,0,.2,0,.4-.1,1-.8.9-.9,0,0,0,0-.5,0-.6.4.3-.2,1.6.9.8-.2-.7.3-2.7-.7-2.3,0-.1,0-.3,0-.4,0,0,.2-.2.3-.4.4,0,.7,0,1.1,0,.4,0,.5,0,.5,0,0,0,0,0,0,0Z"/>
          <path class="cls-4" d="M119.8,68.1s0,.3,0,.5c-1.6-.1-1.6.2-1.8.3-.2,0-.6,0-.6,0,0,0,0,.3,0,.4,0,0-.7.2-.3-.6.6-1.1,1.7-1,2.7-.6Z"/>
          <path class="cls-19" d="M119.8,69.2c0,0,0-.5,0-.6,0-.2,0-.5,0-.5,0,0,0,.1.1-.4,1-.3.5,1.6.7,2.3-1.1.8-.5-.5-.9-.8Z"/>
          <path class="cls-19" d="M145.5,68.3c0,.2,0,.4,0,.6,0,.2,0,.4,0,.6,0,0,0,.2,0,.3-.1.9-.8,1-.9,0,0-.3,0-.7,0-1.1,0,0,0,0,0-.1.3,0,0-.5.1-.7.3-.6.6.4.7.4Z"/>
          <path class="cls-19" d="M135.6,68.2c0,0,.1.1.2.1,0,.1,0,.2,0,.4,0,0,0,0,0,.1,0,.2,0,.4,0,.6,0,0,0,.2,0,.4,0,0,0,1-.7.6-.2-.2-.2-.3-.2-.5,0-.2,0-.4,0-.6,0-.2,0-.3,0-.5,0-.4,0-.4,0-.4,0,0,.1,0,.1-.2.4-.2.5,0,.6,0Z"/>
          <path class="cls-22" d="M146.5,68.5c.4,0,.6.5,1.1.6,0,0,.2,0,.1.1-.2.4-.4-.2-.4.3-.5,0-1.2,0-1.7,0,0-.2,0-.4,0-.6,0-.3.7-.4.9-.4Z"/>
          <path class="cls-11" d="M147.3,68.1s0,0,0,0c0,.5-.8-.4-.9.3-.2,0-.9,0-.9.4,0-.2,0-.4,0-.6,0,0,0,0,0,0,.8-.4,1-.5,1.8,0Z"/>
          <path class="cls-46" d="M147.4,68.2c.8.6.3.6.2.9-.4,0-.7-.5-1.1-.6,0-.7,1,.2.9-.3Z"/>
          <path class="cls-20" d="M133,67.5c-3.3,0-6.6,0-10,0,0,0,0-.1,0-.1.5-.2,9.4-.1,9.9,0,0,0,0,0,0,.1Z"/>
        </g>
        <g>
          <path class="cls-12" d="M156.9,89.3s.2,0,.1.8c0,0-.2.2-.2.3-.4,0-.9,0-1.3,0-.9,0-1,0-.6-1.1h2Z"/>
          <path class="cls-16" d="M155.2,89.5c1.2-.2,1.6.4,1.4.6-.2.3-1.2,0-1.5,0v-.6Z"/>
        </g>
        <path class="cls-38" d="M138.5,93c-3.3.1-6.7-.2-10,0-.1-.1-.2-.2,0-.2.5,0,8.3.2,10,0,0,0,0,.1,0,.1Z"/>
        <g>
          <path class="cls-2" d="M156.9,81.8c0,.4.2,1.8.2,2.8,0,0,0,0,0,.4,0,.9,0,1.8,0,2.7,0,.4,0,.7,0,1.1,0,.2,0,.4,0,.6h-2c-.3,1.1-.3,1,.6,1.1.5.8-1.5.4-2.8.5-.7-1.3-.9-1.8-2.1-2.7,0,0-.6-.5-.6-.5-4-2.7-8.7-.8-10.5,3.5h-12.6c0,0-.1-6.6-.1-6.6,0-.1.2,0,.2-.1,0,0,0,0,.1,0,.3,0,1.3.2.4-.2-.2-1.3.6-.5.6-.9,0-.4-.7-.2-.8-.3-.1-.1,0-.2,0-.3-.6-.8-.3.5-.9.3v-1.2c0,0,30.3,0,30.3,0Z"/>
          <path class="cls-42" d="M126.5,83.3c0,.2.2.2.4.2,0,.3,0,.6.1.9,0,0-.1,0-.2.1v6.5c.1,0,12.7,0,12.7,0,1.8-4.3,6.5-6.3,10.5-3.5-4.1-2.4-8.8-.8-10.4,3.7h-13.3c0-.7,0-6.4,0-8,.1-.1.1,0,.1,0Z"/>
          <path class="cls-14" d="M126.8,83.6c-.2,0-.4,0-.4-.2.7-.1.3,0,.4.2Z"/>
        </g>
        <path class="cls-30" d="M115.2,93.1c0,.2.2,0,.2.3,0,.6-.3.3-1.2.3.1-1.8-1.2-4-3-4.3-1.9-.8-4.2.3-4.9,2.2-.4,1.2,0,1.8-.4,1.9-1.6.1-1.1-.2-1.2-.3,0-.2,0-.1.1-.1.1,0,.3,0,.4,0,.2-.2.1-2.6,2.6-3.8,2.8-1.4,5.8-.1,7.1,2.7.1.3.2.8.3,1.1Z"/>
        <path class="cls-42" d="M117,81.8c0,2.8,0,5.7.1,8.5,0,.8,0,.9,0,.9,0,0,.2.7.2,1.2,0,.2.2.5,0,.7-.4,0-.9,0-1.3,0,0-.6,0-1.4-.3-1.9.3,0,.7-.2.9-.5-.4-.7-.4-.9-.9-1.6-2.5-3.3-7.1-3.7-10.1-.9-1,.9-1.5,1.6-1.9,2.9h-1.8s1.6-.1,1.6-.1c1.6-3.8,5.5-5.8,9.5-4.2,1,.4,2.6,1.7,3.2,2.6.7,1.2.5,2.3.8,1.7v-9.3c-.1,0,0,0,0,0Z"/>
        <path class="cls-42" d="M115.7,91.1c-.3-.9-1.6-2-2.5-2.4-1.7-.8-3.7-1-5.5-.1-.1,0-.4.2-.5.3-1.2.8-1.9,2-2.3,3.3-1,0-1.9,0-2.9,0,0,.1,0,0-.1,0,0,.3,0,.9,0,.9h0c.7,0,2.2-.2,2.7.1,0-.2,0-.1.1-.1.1,0,.3,0,.4,0,.2-.2.1-2.6,2.6-3.8,2.8-1.4,5.8-.1,7.1,2.7.1.3.2.8.3,1.1.4.1.7,0,.8,0,0-.6,0-1.4-.3-1.9Z"/>
        <path class="cls-45" d="M115.7,89.1c-2.4-3.2-6.9-3.6-9.9-1.1,0,0-.1.1-.2.2-1,.9-1.5,1.6-1.9,2.9h-.1c0,.1-4.2,0-4.2,0,0,1.3,0,.8,2.6.9,0,0,0,.1,0,.1,1,0,1.9.1,2.9,0,.4-1.3,1.1-2.6,2.3-3.3.1,0,.4-.2.5-.3,1.7-.9,3.8-.7,5.5.1.9.4,2.2,1.5,2.5,2.4.3,0,.7-.2.9-.5-.4-.7-.4-.9-.9-1.6Z"/>
        <path class="cls-22" d="M135.8,69.4c0-.2,0-.4,0-.6,1,.2,8.3-.3,8.5.1,0,0,0,.5,0,.5-.4.2-7.4-.2-8.5,0Z"/>
        <path class="cls-27" d="M125.8,92.9c0,0,.1.2,0,.3-.4.1-7,0-8.2,0-.1,0,0-.2,0-.3,2.5-.1,6,.2,8.3,0Z"/>
        <path class="cls-10" d="M101.1,63.6s0,0,0,0c0,0,.3.1.5.2,2,.8,5.6,1.6,7.8,1.8,0,0,.1.1.1.1.2,0,.6-.4.6.1.6-.3,2.1.8,2.5,0,0,.6,1.4.3,2.3.4,1.1,0,3.6.2,4.2.3,0,0,0,.4.1.2.3,0,.6,0,.9,0,0,.1-.3.3-.3.4,0,0,0-.1,0-.1-.3,0-4.4-.3-5.3-.4-2.4-.3-12.1-2-13.8-3.1.1,0,.2,0,.4,0Z"/>
        <g>
          <path class="cls-47" d="M151,60.2c0,.1.3,2.6.4,3,0,0,0,0,0,.2,0,.1,0,.2,0,.4,0,.7,0,1.7,0,2.4,0,.1,0,.2,0,.4,0,.3-.1,1.1-.2,1.4,0,0-.1.1-.1.2-.6,0-1,.3-1.3-.1,0,0-.3-1-.4-1.2,0-.1,0-.3,0-.4-.1-.7-.2-1.3-.2-2,0-.3,0-.3,0-.4,0,0,.3.4.1-1,0-.6-.4-1.3-.2-2.8.5-.4,1.7-.1,1.7-.2-.2-.3-.8-.2-1.3-.2.3-.7,1.3-.6,1.5.4Z"/>
          <path class="cls-43" d="M149.3,63c0,0,0,0,0,0-.2,0-.3,0-.5,0v-.5c0-.8,0-2,.3-2.7.5,0,.5,0,.5,0,.5,0,1.1,0,1.3.2,0,0-1.3-.2-1.7.2-.2,1.5.1,2.1.2,2.8Z"/>
        </g>
        <path class="cls-22" d="M134.9,59.8s0,0,0,0c-.4.9-.2,2.2-.2,3.3h.6c0,.1-1,.2-.5.4.6.2,11.5-.1,13.2,0,0,0,0,0,0,.1-4.4,0-8.8.2-13.2,0,0,.3,0,.5,0,.8h-.4c0-.1,0-.2,0-.9,0,0,0,0,0-.1,0-.4,0-.3,0-.3,0-.3,0-.7,0-1.4,0-.5,0-.9,0-1.4h-.1c0-.1-.2-.3-.1-.4,0,0,.2-.2.2-.3.5-.1.2,0,.6.1Z"/>
        <path class="cls-44" d="M134.2,60.9c0,.3,0,1,.2.9,0,.6,0,1.1,0,1.4h-12.4c0-.3,0-2.1,0-2.2,0-.2.4,0,.4-.3,0,0,0,0,.1.1v2.3c3.9,0,7.9.1,11.8-.1.1-.9-.3-2,0-2.1Z"/>
        <path class="cls-44" d="M148.7,62.6v.5c-.5,0-.9,0-1.4,0-4,.2-8-.1-12,0h-.6c.3-.2,0-2.3.1-2.4.1-.1.4,0,.4-.2.2,1.3,0,2.4.1,2.5,3.4-.2,8.9.2,11.9,0,.2,0,1.2,0,1.2,0,.1,0,0-.5.2-.4Z"/>
        <path class="cls-24" d="M121.3,63.2c.2,0,0,0,0,0h-20.2s-.2,0,0-.1c1.4.2,16.9-.2,20.1,0Z"/>
        <path class="cls-10" d="M122.3,60.7c0,.3-.3,0-.4.3,0,.1,0,1.9,0,2.2,0,0,0,0,0,.1,0,.2,0,.2,0,.3,0,0,0,0,0,.1,0,1,0,2.1,0,3.1,0,0,0,0,0,0,0-.8,0-1.6,0-2.5,0-.8,0-3.8,0-4.2,0,0,.2,0,.2,0-.3,0-.3-.7-.7-.3-.5.5.2.5,0,1,0,0-.1,0-.1-.3,0-.2-.2-.4-.1-.6,0,0,.7-.8,1,.1.2-.6.2.3.3.7Z"/>
        <path class="cls-35" d="M121.3,60.8c.1,1,.1,2.6.1,3.7,0,.4,0,1.4-.1,1.4,0,0,0,0,0-.2,0-.5,0-1,0-1.4,0-.3,0-.6,0-.9,0,0,0,0,0,0,0,0,.2,0,0,0v-2.7c0,.2,0,.3,0,.3Z"/>
        <path class="cls-39" d="M135.3,60.6c0,.3-.2,0-.4.2,0,0,.2,2.3-.1,2.3,0-1.1-.2-2.4.2-3.3.3,0,.1-.7.3.8Z"/>
        <path class="cls-9" d="M134.4,61.8c-.2,0-.2-.5-.2-.9,0,0,0,0,0,0,0-.2,0-.3,0-.4h.1c0,.4,0,.9,0,1.4Z"/>
        <path class="cls-39" d="M134.3,59.7c0,0-.2.2-.2.3,0,.2.1.3.1.5,0,.1,0,.3,0,.4-.4-.2-.4-1,.1-1.2Z"/>
        <path class="cls-25" d="M134.9,59.8c-.4,0,0-.3-.6-.1.2-.3.2-.5.6.1Z"/>
        <path class="cls-44" d="M151,60.2c0,.1.3,2.6.4,3h6.4c0,.1-6.4.2-6.4.2,0,.1,0,.2,0,.4,0,.7,0,1.7,0,2.4,1.6,0,3.1-.4,4.5-1.1.5-.2,1-.5,1.4-.8.3-.2.7-.5.9-.8-1.9-2.2-4.5-2.7-7.2-3.2Z"/>
        <path class="cls-24" d="M151.4,63.4c0-.1,0-.2,0-.2h6.4c0,.1-6.4.2-6.4.2Z"/>
        <path class="cls-43" d="M149.2,64.4c0,.7,0,1.4.2,2-1.1.3-2.3.4-3.5.4v-.4h2.9c.1-.2,0-1.9-.1-2.2h.5Z"/>
        <path class="cls-17" d="M149.4,66.5c0,.1,0,.3,0,.4-1,0-2.7,0-3.6.2h0c0-.1,0-.1,0-.1,1.2,0,2.4-.1,3.5-.4Z"/>
        <path class="cls-7" d="M149.1,64c0,0,0,.2,0,.4h-.5c0-.3,0-.4,0-.5h.4Z"/>
        <g>
          <path class="cls-44" d="M135,59.8c.3,0,.1-.7.3.8.2,1.3,0,2.4.1,2.5,3.4-.2,8.9.2,11.9,0,.2,0,1.2,0,1.2,0,.1,0,0-.5.2-.4,0-.8,0-2,.3-2.7-2.1-.2-4.2-.6-6.3-.7-10.6-.9-21.5-1-32,1-2.1.4-8.3,1.8-9.8,2.8,0,0,.2.1.2.1,1.4.2,16.9-.2,20.1,0v-2.7c-.1-.2-.3-.4-.2-.6,0,0,.7-.8,1,.1.2-.6.2.3.3.7,0,0,0,0,.1.1v2.3c3.9,0,7.9.1,11.8-.1.1-.9-.3-2,0-2.1,0,0,0,0,0,0-.4-.2-.4-1,.1-1.2.2-.3.2-.5.6.1,0,0,0,0,0,0Z"/>
          <path class="cls-44" d="M148.7,63.9c0-.3,0-.2,0-.2-.2,0-.5,0-.6,0-4.4,0-8.8.2-13.2,0,0,.3,0,.5,0,.8,0,.8,0,1.6,0,2.5,3.1,0,6.3,0,9.5,0-.6,0-.4-.8-.3-1.2h1.8v.9c.1,0,3,0,3,0,.1,0,0-1.9-.1-2.2,0-.1,0-.2,0-.4Z"/>
        </g>
        <path class="cls-44" d="M134.3,63.7c-.2.7,0,2.2,0,3h0c-4.1.2-8.3.2-12.4,0,0-1,0-2.1,0-3.1h12.4Z"/>
        <path class="cls-21" d="M121.3,65.7c0,.2,0,.2,0,.2,0,.4.1.6,0,1-.4,0-.7,0-1.1,0-.3,0-.6,0-.9,0v-1.2c.1,0,1.9,0,1.9,0Z"/>
        <path class="cls-21" d="M145.9,66.5v.4s0,0,0,0c-.5,0-1,0-1.5,0-.6,0-.4-.8-.3-1.2h1.8v.9Z"/>
        <path class="cls-46" d="M134.8,64.4c0,.8,0,1.6,0,2.5-.2,0-.3,0-.5,0h0c0-.9.1-1.8.1-2.5h.4Z"/>
        <path class="cls-46" d="M121.8,66.8s0,0-.5,0c.1-.4,0-.6,0-1,.2,0,.2-1.1.1-1.4h.3c0,.7.1,1.6,0,2.4Z"/>
        <path class="cls-44" d="M121.3,64.2c0,.5,0,1,0,1.4h-1.8c0,0-.1,1.2-.1,1.2-.1.2,0-.2-.1-.2-.6,0-3.1-.2-4.2-.3-.9,0-2.3.3-2.3-.4-.4.7-1.8-.4-2.5,0,0-.6-.5-.1-.6-.1,0,0-.1-.1-.1-.1-2.2-.2-5.8-1-7.8-1.8h19.5c0,0,.1.4.1.4Z"/>
        <path class="cls-26" d="M121.3,63.3s0,0,0,0v.2c-6.7,0-13.4,0-20.1,0,0,0,0,0,0,0,0-.1,0-.2,0-.3h20.2Z"/>
        <path class="cls-36" d="M121.3,64.2v-.5c-.1,0-19.6,0-19.6,0-.2,0-.5-.1-.5-.2,6.7,0,13.4,0,20,0v-.2c0,.3.1.6.1.9Z"/>
        <path class="cls-26" d="M134.4,63.4s0,0,0,.1h-12.4s0,0,0-.3c4.2,0,8.3,0,12.5.1Z"/>
        <path class="cls-26" d="M135.3,63.3c.6,0,11.2,0,12,0,.2,0,.6,0,.6.1-1.6,0-12.6.3-13.2,0-.5-.2.5-.3.5-.3Z"/>
        <path class="cls-24" d="M134.3,63.1s0,0,0,.3c-4.1-.2-8.3-.1-12.5-.1,0,0,0,0,0-.1h12.4Z"/>
        <path class="cls-1" d="M134.5,64.4c0,.8,0,1.6-.1,2.4,0-.8-.2-2.4,0-3,0,0,0,0,0-.1h0c0,.6,0,.8,0,.8Z"/>
        <path class="cls-22" d="M121.8,64.4h-.3c0-1,0-2.6-.1-3.6.3-.5-.5-.5,0-1,.4-.4.3.3.7.3,0,0-.2,0-.2,0-.1.4,0,3.4,0,4.2Z"/>
        <path class="cls-36" d="M134.3,63.6s0,.1,0,.1h-12.4c0-.2,0-.1,0-.1h12.3Z"/>
        <path class="cls-8" d="M149.3,63c0,0,0,0,0,0-.2,0-.3,0-.5,0-.5,0-.9,0-1.4,0-4,.2-8-.1-12,0h0c.6,0,11.2,0,12,.1.2,0,.6,0,.6.1,0,0,0,0,0,.1.2,0,.5,0,.6,0,0,0,0,0,0,.2h.4s.3.4.1-.9Z"/>
        <path class="cls-22" d="M117.4,72.3c0,.4.5,0,.5.3-.4.1-.6.3-.8.7,0,.1-.1.6-.1.7,0,.6,0,5.7,0,7.3h-16.8l-.2.5h-.5v-.8c.9-.6,2.9-4,3.8-5.2.6-.9,2-2.1,2-2.2.2-.3,0-.4,0-.5,0-.1.2-.3.2-.4.9.1,1.1-.3,1.9-.4.8-.1,7.9,0,9.9,0Z"/>
        <path class="cls-5" d="M105.3,73.1c0,.1.2.2,0,.5,0,.1-1.4,1.4-2,2.2-.9,1.2-2.9,4.6-3.8,5.2,0,0-.1,0-.2,0,0,0,0,0,0-.3,1.4-1,2.5-3.3,3.6-4.8,1-1.3,2.3-2.4,2.3-2.6,0-.6-1.4-.5-1.6-.8l1.7.4Z"/>
        <path class="cls-5" d="M102.3,78.9c.1.1-.5,1,.3,1.2.6.2,11.8.1,12.3,0,.9-.4.3-5.2.5-6.2-.2,0,0-.6-.6-.8-.4-.1-7.1-.1-7.5,0-.2,0-1,.8-.5.1.2,0,.5-.3.7-.4.4,0,6.9,0,7.3,0,.4,0,.8.4.8.8,0,.5,0,5.9-.1,6.2,0,.1-.5.4-.6.4-.6.1-11.3.1-11.9,0-.9,0-1-.7-.5-1.4Z"/>
        <path class="cls-15" d="M115.3,73.8c-.2,0,0-.6-.6-.8-.4-.1-7.1-.1-7.5,0-.2,0-1,.8-.5.1,0,0-.1,0-.1,0-.1,0-1.4,1.6-1.7,1.9-.3.4-.6.8-.9,1.1-.5.4-.5.6-.9,1.1-.3.4-.5.7-.7,1.1-.2.1-.5,0-.5.2,0,.2.3.3.4.3.1.1-.5,1,.3,1.1.6.2,11.7.1,12.3,0,.9-.4.3-5.2.5-6.2Z"/>
        <path class="cls-45" d="M125.8,92.5c0,0,0,.2,0,.3,0,0,0,0,0,0-2.3.2-5.8-.1-8.3,0,.1-.5.5-.2.8-.4,2.5,0,5,0,7.5,0Z"/>
        <path class="cls-3" d="M117.7,92.5c-.2,0-.3,0-.4,0,0-.5-.2-1.1-.2-1.2,0,0,0-.1,0-.9,1,.4,0,1.1,0,1.2,0,.2.8.2.5,1Z"/>
        <path class="cls-22" d="M126.2,73.5c0,0,.1.2.1.2,0,.4,0,6.6,0,7.7,0,.2,0,.4,0,.6,0,.4,0,.8,0,1.2,0,0,0,.1,0,.2,0,1.6,0,7.3,0,7.9,0,.4-.5,1-.5,1.2-2.5,0-5,0-7.5,0-.2,0-.4,0-.6,0,.3-.8-.5-.8-.5-1,0,0,1-.8,0-1.2,0-2.8-.1-5.7-.1-8.5,0-.2,0-.3,0-.5,0-1.6-.1-6.7,0-7.3,0-.1,0-.5.1-.7.2-.2.5-.4.8-.4.4,0,7.1,0,7.5,0,0,0,.6.3.8.6Z"/>
        <g>
          <path class="cls-15" d="M126.5,81.9h0c0,.4,0,.8,0,1.2h.2v-1.2Z"/>
          <path class="cls-15" d="M125.1,74c-.8-.3-1.8,0-2.7-.1,0,0,0,0,0-.1.8,0,1.6,0,2.4,0,0,0,.8.3.3,0-.3-.2-6.4,0-6.7,0,0,0-.3.2-.4.4,0,0-.1,0-.1,0-.1.4.2,7.9.1,9.2.2.1.3,0,.3,0,.7,0,1.5,0,2.2,0,.5,0,1.1,0,1.6,0,.2,0,.4,0,.6,0,.7,0,1.4,0,2.2,0,0,0,.2.2.4,0,.2-3,.1-6,.1-9-.4-.2-.4-.1-.4-.1Z"/>
          <path class="cls-15" d="M125.7,78.6c0,8.4.3-1.5,0-3.7v3.7Z"/>
          <path class="cls-15" d="M125.8,82.2c-.1.6,0,1.7,0,.5,0,0,0-.5,0-.5Z"/>
        </g>
        <path class="cls-29" d="M139.9,73.2c.5.4.3,2.6.2,3.4-.2-3.6.4-3.3-1.4-3.3,0,0,0-.2,0-.2-.5-.2-9.1.2-10.5,0,0,0,0,.1-.2.2-.2.1-.4.2-.5.4.3,1.2,0,5.5.1,6,0,0,.3.4.3.4,1.6,0,11.1.2,11.6,0,.2,0,.4-.4.5-.4,0,.2-.3.5-.5.6-.6.1-11,.1-11.6,0-.2,0-.6-.4-.7-.6,0-.3,0-5.7,0-6,0-.2.4-.5.6-.7,1.8,0,10.6-.2,11.2,0,.2,0,.6.2.8.3Z"/>
        <path class="cls-28" d="M138.7,73.2c-3.6-.1-7.1,0-10.7,0,.1,0,.2-.2.2-.2,1.3.2,10-.2,10.5,0,0,0,0,.2,0,.2Z"/>
        <path class="cls-6" d="M153.8,73.2v.6c0-.3-.1-.7-.5-.8-.5-.1-10.2-.1-10.8,0-.2,0-.6.4-.7.7,0,.4.2,4.7,0,5.9,0,.2.4.4.5.5.6.1,11.2.1,11.8,0,.2,0,.4-.3.5-.5h0c0,.4-.3.6-.5.6-.6.2-11.5.1-12.1,0-.2,0-.5-.4-.5-.6.3-1.3-.1-5.1,0-6,0-.3.3-.4.5-.6,1.8,0,10.2-.3,11.1,0,0,0,.4.3.5.3Z"/>
        <path class="cls-11" d="M154.5,77.3c0,.2,0,.3,0,.5,0,.5.2,1.5.2,1.8h0c0-.3-.5-2.6-.5-2.8,0,0,.1-.2.1-.2.1.2.2.4.2.6Z"/>
        <path class="cls-11" d="M154.3,74.5c.2,1.2,0,1.7,0,1.9,0,0-.1-.2-.1-.2,0-.5-.3-1.9,0-1.7Z"/>
        <circle cx="146.1" cy="93.2" r="3.7"/>
        <circle cx="110.1" cy="93.2" r="3.7"/>
        <circle class="cls-31" cx="110.1" cy="93.2" r="2.5"/>
        <circle class="cls-31" cx="146.1" cy="93.2" r="2.5"/>
      </g>
    </g>
  </g>
</svg>